<svg width="500" height="500" viewBox="0 0 500 500" fill="none" xmlns="http://www.w3.org/2000/svg">
<path d="M454.441 272.824C459.186 272.824 463.71 273.622 468.101 274.764V263.049C403.804 225.663 329.185 204.216 249.55 204.216C169.916 204.216 95.2967 225.663 31 263.051V274.766C35.3908 273.624 39.9127 272.826 44.66 272.826C70.091 272.826 91.2726 290.36 97.364 313.99H128.548C134.64 290.36 155.823 272.826 181.252 272.826C206.681 272.826 227.865 290.36 233.956 313.99H265.141C271.232 290.36 292.416 272.826 317.845 272.826C343.274 272.826 364.457 290.36 370.549 313.99H401.733C407.828 290.358 429.01 272.824 454.441 272.824Z" fill="black"/>
<path d="M206.673 152.859C206.673 152.859 289.492 135.912 358.827 195.22C358.827 195.22 350.361 169.807 328.604 152.571C328.604 152.571 387.065 156.22 468.101 247.184C468.101 247.184 377.103 67 194.915 67C194.915 67 254.98 74.7184 275.39 117.301C275.39 117.301 171.781 95.0846 85.6385 145.798C85.6385 145.798 141.106 136.682 164.88 153.629C164.88 153.629 83.9707 171.243 31.0024 247.184C95.7355 211.066 170.254 190.494 249.551 190.494C249.551 190.494 238.04 161.934 206.673 152.859Z" fill="black"/>
<path d="M70.5669 371.214C71.6982 373.22 72.9322 374.968 74.2692 376.459C75.6575 377.95 77.1744 379.107 78.8199 379.93C80.4653 380.753 82.2394 381.164 84.1419 381.164C86.353 381.164 88.1527 380.598 89.5411 379.467C90.9294 378.336 91.6236 376.793 91.6236 374.839C91.6236 373.142 91.1865 371.78 90.3124 370.751C89.4896 369.723 88.2298 368.823 86.533 368.052C84.8875 367.229 82.8564 366.355 80.4396 365.429C79.1541 364.967 77.6629 364.349 75.9661 363.578C74.3206 362.755 72.7523 361.727 71.2611 360.493C69.7699 359.207 68.5358 357.665 67.5588 355.865C66.5818 354.014 66.0933 351.803 66.0933 349.232C66.0933 346.147 66.8646 343.498 68.4072 341.287C70.0013 339.025 72.1352 337.302 74.8091 336.12C77.5344 334.886 80.5682 334.269 83.9105 334.269C87.3557 334.269 90.3124 334.86 92.7805 336.043C95.3002 337.174 97.3827 338.639 99.0281 340.439C100.725 342.187 102.036 344.013 102.962 345.915L94.3232 350.697C93.6033 349.412 92.7291 348.255 91.7007 347.226C90.7237 346.147 89.5925 345.298 88.307 344.681C87.0215 344.013 85.556 343.678 83.9105 343.678C81.7509 343.678 80.1311 344.193 79.0513 345.221C77.9715 346.198 77.4315 347.355 77.4315 348.692C77.4315 350.029 77.8686 351.212 78.7428 352.24C79.6169 353.217 80.9538 354.168 82.7536 355.094C84.5533 355.968 86.8158 356.868 89.5411 357.793C91.2894 358.41 92.9605 359.182 94.5546 360.107C96.2 361.033 97.6655 362.164 98.951 363.501C100.288 364.787 101.316 366.329 102.036 368.129C102.808 369.877 103.193 371.908 103.193 374.222C103.193 376.845 102.679 379.184 101.651 381.241C100.622 383.298 99.2081 385.046 97.4084 386.486C95.6087 387.874 93.5776 388.928 91.3151 389.648C89.104 390.42 86.7644 390.805 84.2962 390.805C81.0053 390.805 77.92 390.188 75.0405 388.954C72.2124 387.669 69.7442 385.946 67.6359 383.786C65.5277 381.627 63.8822 379.287 62.6996 376.768L70.5669 371.214ZM118.356 378.31C118.356 379.339 118.613 380.238 119.127 381.01C119.642 381.73 120.336 382.295 121.21 382.707C122.135 383.067 123.138 383.247 124.218 383.247C125.761 383.247 127.149 382.938 128.383 382.321C129.617 381.652 130.62 380.727 131.391 379.544C132.162 378.31 132.548 376.845 132.548 375.148L133.782 379.776C133.782 382.038 133.139 383.941 131.854 385.483C130.62 387.026 129 388.183 126.995 388.954C125.041 389.725 122.984 390.111 120.824 390.111C118.613 390.111 116.556 389.674 114.654 388.8C112.751 387.926 111.209 386.666 110.026 385.021C108.895 383.324 108.329 381.267 108.329 378.85C108.329 375.405 109.537 372.68 111.954 370.674C114.371 368.669 117.79 367.666 122.213 367.666C124.475 367.666 126.455 367.898 128.152 368.36C129.9 368.823 131.365 369.389 132.548 370.057C133.731 370.726 134.579 371.368 135.093 371.985V376.613C133.705 375.585 132.137 374.814 130.388 374.299C128.692 373.785 126.892 373.528 124.989 373.528C123.447 373.528 122.187 373.734 121.21 374.145C120.233 374.505 119.513 375.045 119.05 375.765C118.587 376.433 118.356 377.282 118.356 378.31ZM114.499 363.887L110.797 357.099C112.648 356.122 114.911 355.197 117.585 354.323C120.259 353.397 123.241 352.934 126.532 352.934C129.566 352.934 132.265 353.371 134.631 354.245C136.996 355.12 138.847 356.405 140.184 358.102C141.521 359.747 142.189 361.778 142.189 364.195V389.34H132.548V366.278C132.548 365.301 132.394 364.478 132.085 363.81C131.777 363.09 131.288 362.498 130.62 362.036C130.003 361.573 129.257 361.239 128.383 361.033C127.509 360.827 126.532 360.724 125.452 360.724C123.807 360.724 122.238 360.904 120.747 361.264C119.256 361.624 117.97 362.061 116.891 362.575C115.811 363.09 115.014 363.527 114.499 363.887ZM146.932 353.86H168.837V362.267H146.932V353.86ZM153.025 341.519H162.666V389.34H153.025V341.519ZM175.929 377.076C177.42 378.464 178.808 379.596 180.094 380.47C181.379 381.293 182.588 381.91 183.719 382.321C184.902 382.732 186.007 382.938 187.035 382.938C188.372 382.938 189.401 382.655 190.121 382.09C190.841 381.473 191.201 380.65 191.201 379.621C191.201 378.696 190.892 377.924 190.275 377.307C189.709 376.639 188.861 376.048 187.73 375.533C186.598 375.019 185.159 374.479 183.41 373.914C181.765 373.297 180.171 372.577 178.628 371.754C177.086 370.88 175.8 369.749 174.772 368.36C173.795 366.921 173.306 365.095 173.306 362.884C173.306 360.776 173.872 359.002 175.003 357.562C176.134 356.071 177.651 354.965 179.554 354.245C181.508 353.474 183.667 353.088 186.033 353.088C188.038 353.088 189.915 353.346 191.663 353.86C193.412 354.374 195.031 355.068 196.523 355.942C198.014 356.765 199.325 357.742 200.456 358.873L196.06 365.044C194.774 363.655 193.232 362.524 191.432 361.65C189.684 360.776 187.961 360.339 186.264 360.339C185.133 360.339 184.233 360.57 183.565 361.033C182.948 361.444 182.639 362.087 182.639 362.961C182.639 363.732 182.948 364.427 183.565 365.044C184.233 365.609 185.159 366.124 186.341 366.586C187.575 367.049 188.964 367.615 190.506 368.283C192.409 369.003 194.157 369.826 195.751 370.751C197.397 371.625 198.708 372.731 199.685 374.068C200.662 375.405 201.15 377.153 201.15 379.313C201.15 382.861 199.993 385.638 197.68 387.643C195.366 389.597 192.178 390.574 188.115 390.574C185.596 390.574 183.282 390.24 181.174 389.571C179.117 388.903 177.24 388.029 175.543 386.949C173.898 385.818 172.406 384.609 171.069 383.324L175.929 377.076ZM217.229 361.958V356.945H225.944C227.538 356.945 228.927 356.688 230.109 356.174C231.292 355.659 232.192 354.914 232.809 353.937C233.477 352.96 233.812 351.803 233.812 350.466C233.812 348.409 233.092 346.841 231.652 345.761C230.264 344.681 228.361 344.141 225.944 344.141H220.005V380.547H227.101C228.952 380.547 230.624 380.29 232.115 379.776C233.606 379.21 234.763 378.336 235.586 377.153C236.46 375.971 236.897 374.454 236.897 372.602C236.897 371.266 236.64 370.134 236.126 369.209C235.663 368.232 234.969 367.435 234.043 366.818C233.169 366.149 232.14 365.686 230.958 365.429C229.775 365.121 228.49 364.967 227.101 364.967H217.229V358.95H228.104C230.726 358.95 233.22 359.233 235.586 359.799C238.002 360.364 240.162 361.264 242.065 362.498C243.967 363.681 245.458 365.224 246.538 367.126C247.669 369.029 248.235 371.317 248.235 373.991C248.235 377.539 247.387 380.444 245.69 382.707C244.044 384.969 241.705 386.64 238.671 387.72C235.637 388.8 232.115 389.34 228.104 389.34H208.976V335.348H226.947C230.546 335.348 233.709 335.863 236.434 336.891C239.159 337.868 241.293 339.359 242.836 341.365C244.379 343.37 245.15 345.915 245.15 349C245.15 351.726 244.379 354.065 242.836 356.019C241.293 357.973 239.159 359.465 236.434 360.493C233.709 361.47 230.546 361.958 226.947 361.958H217.229ZM266.504 353.86V389.34H256.709V353.86H266.504ZM276.917 364.272C276.248 363.655 275.554 363.193 274.834 362.884C274.166 362.524 273.317 362.344 272.289 362.344C271.055 362.344 270.001 362.678 269.127 363.347C268.252 364.015 267.584 364.967 267.121 366.201C266.71 367.383 266.504 368.823 266.504 370.52L263.727 367.743C263.727 364.915 264.267 362.421 265.347 360.262C266.427 358.05 267.841 356.302 269.589 355.017C271.338 353.68 273.137 353.011 274.989 353.011C276.274 353.011 277.482 353.243 278.614 353.705C279.796 354.168 280.748 354.862 281.468 355.788L276.917 364.272ZM286.3 340.13C286.3 338.485 286.891 337.148 288.074 336.12C289.256 335.04 290.67 334.5 292.316 334.5C293.961 334.5 295.35 335.04 296.481 336.12C297.664 337.148 298.255 338.485 298.255 340.13C298.255 341.724 297.664 343.061 296.481 344.141C295.35 345.221 293.961 345.761 292.316 345.761C290.67 345.761 289.256 345.221 288.074 344.141C286.891 343.061 286.3 341.724 286.3 340.13ZM287.379 353.86H297.098V389.34H287.379V353.86ZM334.467 329.178H344.494V389.34H334.467V329.178ZM305.311 371.6C305.311 367.64 306.108 364.298 307.702 361.573C309.296 358.796 311.405 356.688 314.027 355.248C316.649 353.808 319.426 353.088 322.357 353.088C325.339 353.088 327.962 353.834 330.224 355.325C332.538 356.816 334.338 358.95 335.624 361.727C336.96 364.452 337.629 367.743 337.629 371.6C337.629 375.405 336.96 378.696 335.624 381.473C334.338 384.249 332.538 386.383 330.224 387.874C327.962 389.366 325.339 390.111 322.357 390.111C319.426 390.111 316.649 389.391 314.027 387.951C311.405 386.512 309.296 384.403 307.702 381.627C306.108 378.85 305.311 375.508 305.311 371.6ZM315.647 371.6C315.647 373.708 316.084 375.533 316.958 377.076C317.832 378.619 319.015 379.801 320.506 380.624C321.997 381.447 323.591 381.858 325.288 381.858C326.779 381.858 328.219 381.473 329.607 380.701C331.047 379.878 332.204 378.696 333.078 377.153C334.004 375.611 334.467 373.759 334.467 371.6C334.467 369.44 334.004 367.589 333.078 366.046C332.204 364.504 331.047 363.347 329.607 362.575C328.219 361.753 326.779 361.341 325.288 361.341C323.591 361.341 321.997 361.753 320.506 362.575C319.015 363.398 317.832 364.581 316.958 366.124C316.084 367.666 315.647 369.492 315.647 371.6ZM352.404 391.808H362.2C362.251 393.351 362.663 394.662 363.434 395.742C364.205 396.873 365.259 397.747 366.596 398.364C367.933 398.981 369.502 399.29 371.301 399.29C372.947 399.29 374.489 398.904 375.929 398.133C377.42 397.361 378.603 396.179 379.477 394.585C380.403 392.991 380.866 390.985 380.866 388.569V353.86H390.507V388.569C390.507 392.939 389.633 396.539 387.884 399.367C386.188 402.195 383.899 404.252 381.02 405.537C378.14 406.874 375.004 407.543 371.61 407.543C367.496 407.543 364.051 406.874 361.274 405.537C358.498 404.252 356.364 402.401 354.872 399.984C353.433 397.619 352.61 394.893 352.404 391.808ZM351.71 371.291C351.71 367.332 352.507 364.015 354.101 361.341C355.695 358.616 357.803 356.559 360.426 355.171C363.048 353.783 365.825 353.088 368.756 353.088C371.738 353.088 374.361 353.808 376.623 355.248C378.937 356.688 380.737 358.77 382.022 361.496C383.359 364.17 384.028 367.435 384.028 371.291C384.028 375.096 383.359 378.362 382.022 381.087C380.737 383.812 378.937 385.895 376.623 387.334C374.361 388.723 371.738 389.417 368.756 389.417C365.825 389.417 363.048 388.723 360.426 387.334C357.803 385.946 355.695 383.915 354.101 381.241C352.507 378.516 351.71 375.199 351.71 371.291ZM362.046 371.291C362.046 373.399 362.483 375.199 363.357 376.69C364.231 378.13 365.414 379.236 366.905 380.007C368.396 380.778 369.99 381.164 371.687 381.164C373.178 381.164 374.618 380.804 376.006 380.084C377.446 379.313 378.603 378.207 379.477 376.768C380.403 375.276 380.866 373.451 380.866 371.291C380.866 369.646 380.608 368.206 380.094 366.972C379.58 365.738 378.86 364.709 377.935 363.887C377.06 363.064 376.083 362.447 375.004 362.036C373.924 361.573 372.818 361.341 371.687 361.341C369.99 361.341 368.396 361.727 366.905 362.498C365.414 363.27 364.231 364.401 363.357 365.892C362.483 367.332 362.046 369.132 362.046 371.291ZM416.936 390.111C413.08 390.111 409.712 389.34 406.832 387.797C403.953 386.255 401.716 384.121 400.122 381.395C398.579 378.619 397.808 375.353 397.808 371.6C397.808 367.795 398.579 364.529 400.122 361.804C401.716 359.027 403.953 356.894 406.832 355.402C409.712 353.86 413.105 353.088 417.013 353.088C420.921 353.088 424.238 353.808 426.963 355.248C429.74 356.636 431.848 358.693 433.288 361.419C434.728 364.092 435.448 367.332 435.448 371.137C435.448 371.6 435.422 372.088 435.37 372.602C435.37 373.117 435.345 373.528 435.293 373.837H403.515V367.666H426.578L423.878 371.214C424.084 370.906 424.264 370.494 424.418 369.98C424.624 369.414 424.726 368.952 424.726 368.592C424.726 366.843 424.392 365.352 423.724 364.118C423.107 362.884 422.207 361.907 421.024 361.187C419.841 360.467 418.453 360.107 416.859 360.107C414.905 360.107 413.26 360.544 411.923 361.419C410.637 362.241 409.634 363.501 408.915 365.198C408.246 366.843 407.886 368.9 407.835 371.368C407.835 373.734 408.169 375.739 408.837 377.385C409.557 379.03 410.611 380.29 412 381.164C413.388 382.038 415.059 382.475 417.013 382.475C419.224 382.475 421.101 382.064 422.644 381.241C424.238 380.367 425.549 379.081 426.578 377.385L435.293 380.084C433.442 383.426 430.974 385.946 427.889 387.643C424.855 389.288 421.204 390.111 416.936 390.111Z" fill="black"/>
</svg>
