<svg width="883" height="501" viewBox="0 0 883 501" fill="none" xmlns="http://www.w3.org/2000/svg">
<path d="M646.441 246.824C651.186 246.824 655.71 247.622 660.101 248.764V237.049C595.804 199.663 521.185 178.216 441.55 178.216C361.916 178.216 287.297 199.663 223 237.051V248.767C227.391 247.624 231.913 246.826 236.66 246.826C262.091 246.826 283.273 264.36 289.364 287.99H320.548C326.64 264.36 347.823 246.826 373.252 246.826C398.681 246.826 419.865 264.36 425.956 287.99H457.141C463.232 264.36 484.416 246.826 509.845 246.826C535.274 246.826 556.457 264.36 562.549 287.99H593.733C599.828 264.358 621.01 246.824 646.441 246.824Z" fill="black"/>
<path d="M398.673 126.859C398.673 126.859 481.492 109.912 550.827 169.22C550.827 169.22 542.361 143.807 520.604 126.571C520.604 126.571 579.065 130.22 660.101 221.184C660.101 221.184 569.103 41 386.915 41C386.915 41 446.98 48.7184 467.39 91.3012C467.39 91.3012 363.781 69.0846 277.639 119.798C277.639 119.798 333.106 110.682 356.88 127.629C356.88 127.629 275.971 145.243 223.002 221.184C287.736 185.066 362.254 164.494 441.551 164.494C441.551 164.494 430.04 135.934 398.673 126.859Z" fill="black"/>
<path d="M24.66 390.7C27.3 395.38 30.18 399.46 33.3 402.94C36.54 406.42 40.08 409.12 43.92 411.04C47.76 412.96 51.9 413.92 56.34 413.92C61.5 413.92 65.7 412.6 68.94 409.96C72.18 407.32 73.8 403.72 73.8 399.16C73.8 395.2 72.78 392.02 70.74 389.62C68.82 387.22 65.88 385.12 61.92 383.32C58.08 381.4 53.34 379.36 47.7 377.2C44.7 376.12 41.22 374.68 37.26 372.88C33.42 370.96 29.76 368.56 26.28 365.68C22.8 362.68 19.92 359.08 17.64 354.88C15.36 350.56 14.22 345.4 14.22 339.4C14.22 332.2 16.02 326.02 19.62 320.86C23.34 315.58 28.32 311.56 34.56 308.8C40.92 305.92 48 304.48 55.8 304.48C63.84 304.48 70.74 305.86 76.5 308.62C82.38 311.26 87.24 314.68 91.08 318.88C95.04 322.96 98.1 327.22 100.26 331.66L80.1 342.82C78.42 339.82 76.38 337.12 73.98 334.72C71.7 332.2 69.06 330.22 66.06 328.78C63.06 327.22 59.64 326.44 55.8 326.44C50.76 326.44 46.98 327.64 44.46 330.04C41.94 332.32 40.68 335.02 40.68 338.14C40.68 341.26 41.7 344.02 43.74 346.42C45.78 348.7 48.9 350.92 53.1 353.08C57.3 355.12 62.58 357.22 68.94 359.38C73.02 360.82 76.92 362.62 80.64 364.78C84.48 366.94 87.9 369.58 90.9 372.7C94.02 375.7 96.42 379.3 98.1 383.5C99.9 387.58 100.8 392.32 100.8 397.72C100.8 403.84 99.6 409.3 97.2 414.1C94.8 418.9 91.5 422.98 87.3 426.34C83.1 429.58 78.36 432.04 73.08 433.72C67.92 435.52 62.46 436.42 56.7 436.42C49.02 436.42 41.82 434.98 35.1 432.1C28.5 429.1 22.74 425.08 17.82 420.04C12.9 415 9.06 409.54 6.3 403.66L24.66 390.7ZM136.185 407.26C136.185 409.66 136.785 411.76 137.985 413.56C139.185 415.24 140.805 416.56 142.845 417.52C145.005 418.36 147.345 418.78 149.865 418.78C153.465 418.78 156.705 418.06 159.585 416.62C162.465 415.06 164.805 412.9 166.605 410.14C168.405 407.26 169.305 403.84 169.305 399.88L172.185 410.68C172.185 415.96 170.685 420.4 167.685 424C164.805 427.6 161.025 430.3 156.345 432.1C151.785 433.9 146.985 434.8 141.945 434.8C136.785 434.8 131.985 433.78 127.545 431.74C123.105 429.7 119.505 426.76 116.745 422.92C114.105 418.96 112.785 414.16 112.785 408.52C112.785 400.48 115.605 394.12 121.245 389.44C126.885 384.76 134.865 382.42 145.185 382.42C150.465 382.42 155.085 382.96 159.045 384.04C163.125 385.12 166.545 386.44 169.305 388C172.065 389.56 174.045 391.06 175.245 392.5V403.3C172.005 400.9 168.345 399.1 164.265 397.9C160.305 396.7 156.105 396.1 151.665 396.1C148.065 396.1 145.125 396.58 142.845 397.54C140.565 398.38 138.885 399.64 137.805 401.32C136.725 402.88 136.185 404.86 136.185 407.26ZM127.185 373.6L118.545 357.76C122.865 355.48 128.145 353.32 134.385 351.28C140.625 349.12 147.585 348.04 155.265 348.04C162.345 348.04 168.645 349.06 174.165 351.1C179.685 353.14 184.005 356.14 187.125 360.1C190.245 363.94 191.805 368.68 191.805 374.32V433H169.305V379.18C169.305 376.9 168.945 374.98 168.225 373.42C167.505 371.74 166.365 370.36 164.805 369.28C163.365 368.2 161.625 367.42 159.585 366.94C157.545 366.46 155.265 366.22 152.745 366.22C148.905 366.22 145.245 366.64 141.765 367.48C138.285 368.32 135.285 369.34 132.765 370.54C130.245 371.74 128.385 372.76 127.185 373.6ZM202.873 350.2H253.993V369.82H202.873V350.2ZM217.093 321.4H239.593V433H217.093V321.4ZM270.543 404.38C274.023 407.62 277.263 410.26 280.263 412.3C283.263 414.22 286.083 415.66 288.723 416.62C291.483 417.58 294.063 418.06 296.463 418.06C299.583 418.06 301.983 417.4 303.663 416.08C305.343 414.64 306.183 412.72 306.183 410.32C306.183 408.16 305.463 406.36 304.023 404.92C302.703 403.36 300.723 401.98 298.083 400.78C295.443 399.58 292.083 398.32 288.003 397C284.163 395.56 280.443 393.88 276.843 391.96C273.243 389.92 270.243 387.28 267.843 384.04C265.563 380.68 264.423 376.42 264.423 371.26C264.423 366.34 265.743 362.2 268.383 358.84C271.023 355.36 274.563 352.78 279.003 351.1C283.563 349.3 288.603 348.4 294.123 348.4C298.803 348.4 303.183 349 307.263 350.2C311.343 351.4 315.123 353.02 318.603 355.06C322.083 356.98 325.143 359.26 327.783 361.9L317.523 376.3C314.523 373.06 310.923 370.42 306.723 368.38C302.643 366.34 298.623 365.32 294.663 365.32C292.023 365.32 289.923 365.86 288.363 366.94C286.923 367.9 286.203 369.4 286.203 371.44C286.203 373.24 286.923 374.86 288.363 376.3C289.923 377.62 292.083 378.82 294.843 379.9C297.723 380.98 300.963 382.3 304.563 383.86C309.003 385.54 313.083 387.46 316.803 389.62C320.643 391.66 323.703 394.24 325.983 397.36C328.263 400.48 329.403 404.56 329.403 409.6C329.403 417.88 326.703 424.36 321.303 429.04C315.903 433.6 308.463 435.88 298.983 435.88C293.103 435.88 287.703 435.1 282.783 433.54C277.983 431.98 273.603 429.94 269.643 427.42C265.803 424.78 262.323 421.96 259.203 418.96L270.543 404.38ZM366.924 369.1V357.4H387.264C390.984 357.4 394.224 356.8 396.984 355.6C399.744 354.4 401.844 352.66 403.284 350.38C404.844 348.1 405.624 345.4 405.624 342.28C405.624 337.48 403.944 333.82 400.584 331.3C397.344 328.78 392.904 327.52 387.264 327.52H373.404V412.48H389.964C394.284 412.48 398.184 411.88 401.664 410.68C405.144 409.36 407.844 407.32 409.764 404.56C411.804 401.8 412.824 398.26 412.824 393.94C412.824 390.82 412.224 388.18 411.024 386.02C409.944 383.74 408.324 381.88 406.164 380.44C404.124 378.88 401.724 377.8 398.964 377.2C396.204 376.48 393.204 376.12 389.964 376.12H366.924V362.08H392.304C398.424 362.08 404.244 362.74 409.764 364.06C415.404 365.38 420.444 367.48 424.884 370.36C429.324 373.12 432.804 376.72 435.324 381.16C437.964 385.6 439.284 390.94 439.284 397.18C439.284 405.46 437.304 412.24 433.344 417.52C429.504 422.8 424.044 426.7 416.964 429.22C409.884 431.74 401.664 433 392.304 433H347.664V307H389.604C398.004 307 405.384 308.2 411.744 310.6C418.104 312.88 423.084 316.36 426.684 321.04C430.284 325.72 432.084 331.66 432.084 338.86C432.084 345.22 430.284 350.68 426.684 355.24C423.084 359.8 418.104 363.28 411.744 365.68C405.384 367.96 398.004 369.1 389.604 369.1H366.924ZM481.919 350.2V433H459.059V350.2H481.919ZM506.219 374.5C504.659 373.06 503.039 371.98 501.359 371.26C499.799 370.42 497.819 370 495.419 370C492.539 370 490.079 370.78 488.039 372.34C485.999 373.9 484.439 376.12 483.359 379C482.399 381.76 481.919 385.12 481.919 389.08L475.439 382.6C475.439 376 476.699 370.18 479.219 365.14C481.739 359.98 485.039 355.9 489.119 352.9C493.199 349.78 497.399 348.22 501.719 348.22C504.719 348.22 507.539 348.76 510.179 349.84C512.939 350.92 515.159 352.54 516.839 354.7L506.219 374.5ZM528.116 318.16C528.116 314.32 529.496 311.2 532.256 308.8C535.016 306.28 538.316 305.02 542.156 305.02C545.996 305.02 549.236 306.28 551.876 308.8C554.636 311.2 556.016 314.32 556.016 318.16C556.016 321.88 554.636 325 551.876 327.52C549.236 330.04 545.996 331.3 542.156 331.3C538.316 331.3 535.016 330.04 532.256 327.52C529.496 325 528.116 321.88 528.116 318.16ZM530.636 350.2H553.316V433H530.636V350.2ZM640.523 292.6H663.923V433H640.523V292.6ZM572.483 391.6C572.483 382.36 574.343 374.56 578.063 368.2C581.783 361.72 586.703 356.8 592.823 353.44C598.943 350.08 605.423 348.4 612.263 348.4C619.223 348.4 625.343 350.14 630.623 353.62C636.023 357.1 640.223 362.08 643.223 368.56C646.343 374.92 647.903 382.6 647.903 391.6C647.903 400.48 646.343 408.16 643.223 414.64C640.223 421.12 636.023 426.1 630.623 429.58C625.343 433.06 619.223 434.8 612.263 434.8C605.423 434.8 598.943 433.12 592.823 429.76C586.703 426.4 581.783 421.48 578.063 415C574.343 408.52 572.483 400.72 572.483 391.6ZM596.603 391.6C596.603 396.52 597.623 400.78 599.663 404.38C601.703 407.98 604.463 410.74 607.943 412.66C611.423 414.58 615.143 415.54 619.103 415.54C622.583 415.54 625.943 414.64 629.183 412.84C632.543 410.92 635.243 408.16 637.283 404.56C639.443 400.96 640.523 396.64 640.523 391.6C640.523 386.56 639.443 382.24 637.283 378.64C635.243 375.04 632.543 372.34 629.183 370.54C625.943 368.62 622.583 367.66 619.103 367.66C615.143 367.66 611.423 368.62 607.943 370.54C604.463 372.46 601.703 375.22 599.663 378.82C597.623 382.42 596.603 386.68 596.603 391.6ZM682.384 438.76H705.244C705.364 442.36 706.324 445.42 708.124 447.94C709.924 450.58 712.384 452.62 715.504 454.06C718.624 455.5 722.284 456.22 726.484 456.22C730.324 456.22 733.924 455.32 737.284 453.52C740.764 451.72 743.524 448.96 745.564 445.24C747.724 441.52 748.804 436.84 748.804 431.2V350.2H771.304V431.2C771.304 441.4 769.264 449.8 765.184 456.4C761.224 463 755.884 467.8 749.164 470.8C742.444 473.92 735.124 475.48 727.204 475.48C717.604 475.48 709.564 473.92 703.084 470.8C696.604 467.8 691.624 463.48 688.144 457.84C684.784 452.32 682.864 445.96 682.384 438.76ZM680.764 390.88C680.764 381.64 682.624 373.9 686.344 367.66C690.064 361.3 694.984 356.5 701.104 353.26C707.224 350.02 713.704 348.4 720.544 348.4C727.504 348.4 733.624 350.08 738.904 353.44C744.304 356.8 748.504 361.66 751.504 368.02C754.624 374.26 756.184 381.88 756.184 390.88C756.184 399.76 754.624 407.38 751.504 413.74C748.504 420.1 744.304 424.96 738.904 428.32C733.624 431.56 727.504 433.18 720.544 433.18C713.704 433.18 707.224 431.56 701.104 428.32C694.984 425.08 690.064 420.34 686.344 414.1C682.624 407.74 680.764 400 680.764 390.88ZM704.884 390.88C704.884 395.8 705.904 400 707.944 403.48C709.984 406.84 712.744 409.42 716.224 411.22C719.704 413.02 723.424 413.92 727.384 413.92C730.864 413.92 734.224 413.08 737.464 411.4C740.824 409.6 743.524 407.02 745.564 403.66C747.724 400.18 748.804 395.92 748.804 390.88C748.804 387.04 748.204 383.68 747.004 380.8C745.804 377.92 744.124 375.52 741.964 373.6C739.924 371.68 737.644 370.24 735.124 369.28C732.604 368.2 730.024 367.66 727.384 367.66C723.424 367.66 719.704 368.56 716.224 370.36C712.744 372.16 709.984 374.8 707.944 378.28C705.904 381.64 704.884 385.84 704.884 390.88ZM832.982 434.8C823.982 434.8 816.122 433 809.402 429.4C802.682 425.8 797.462 420.82 793.742 414.46C790.142 407.98 788.342 400.36 788.342 391.6C788.342 382.72 790.142 375.1 793.742 368.74C797.462 362.26 802.682 357.28 809.402 353.8C816.122 350.2 824.042 348.4 833.162 348.4C842.282 348.4 850.022 350.08 856.382 353.44C862.862 356.68 867.782 361.48 871.142 367.84C874.502 374.08 876.182 381.64 876.182 390.52C876.182 391.6 876.122 392.74 876.002 393.94C876.002 395.14 875.942 396.1 875.822 396.82H801.662V382.42H855.482L849.182 390.7C849.662 389.98 850.082 389.02 850.442 387.82C850.922 386.5 851.162 385.42 851.162 384.58C851.162 380.5 850.382 377.02 848.822 374.14C847.382 371.26 845.282 368.98 842.522 367.3C839.762 365.62 836.522 364.78 832.802 364.78C828.242 364.78 824.402 365.8 821.282 367.84C818.282 369.76 815.942 372.7 814.262 376.66C812.702 380.5 811.862 385.3 811.742 391.06C811.742 396.58 812.522 401.26 814.082 405.1C815.762 408.94 818.222 411.88 821.462 413.92C824.702 415.96 828.602 416.98 833.162 416.98C838.322 416.98 842.702 416.02 846.302 414.1C850.022 412.06 853.082 409.06 855.482 405.1L875.822 411.4C871.502 419.2 865.742 425.08 858.542 429.04C851.462 432.88 842.942 434.8 832.982 434.8Z" fill="black"/>
</svg>
