<svg width="955" height="500" viewBox="0 0 955 500" fill="none" xmlns="http://www.w3.org/2000/svg">
<rect width="955" height="500" rx="14" fill="black"/>
<path d="M682.584 249.299C687.333 249.299 691.86 250.106 696.254 251.26V239.426C631.912 201.662 557.241 179.999 477.551 179.999C397.86 179.999 323.189 201.662 258.847 239.428V251.262C263.241 250.108 267.766 249.301 272.517 249.301C297.965 249.301 319.162 267.012 325.257 290.882H356.464C362.559 267.012 383.758 249.301 409.205 249.301C434.651 249.301 455.85 267.012 461.945 290.882H493.152C499.247 267.012 520.446 249.301 545.892 249.301C571.339 249.301 592.538 267.012 598.633 290.882H629.839C635.939 267.01 657.136 249.299 682.584 249.299Z" fill="#BDF658"/>
<path d="M434.643 128.123C434.643 128.123 517.52 111.004 586.903 170.911C586.903 170.911 578.431 145.242 556.659 127.832C556.659 127.832 615.161 131.518 696.254 223.401C696.254 223.401 605.192 41.396 422.876 41.396C422.876 41.396 482.984 49.1924 503.407 92.2054C503.407 92.2054 399.726 69.7644 313.524 120.99C313.524 120.99 369.03 111.782 392.82 128.9C392.82 128.9 311.855 146.693 258.849 223.401C323.628 186.918 398.198 166.138 477.551 166.138C477.551 166.138 466.032 137.289 434.643 128.123Z" fill="#BDF658"/>
<path d="M91.8168 411.65C94.2595 415.98 96.9242 419.755 99.811 422.975C102.809 426.195 106.084 428.693 109.637 430.469C113.19 432.246 117.021 433.134 121.129 433.134C125.903 433.134 129.789 431.913 132.787 429.47C135.785 427.027 137.284 423.696 137.284 419.477C137.284 415.813 136.34 412.871 134.453 410.65C132.676 408.43 129.956 406.487 126.292 404.821C122.739 403.045 118.353 401.157 113.135 399.159C110.359 398.159 107.139 396.827 103.475 395.162C99.922 393.385 96.5356 391.165 93.3157 388.5C90.0958 385.724 87.4311 382.393 85.3215 378.507C83.2119 374.51 82.1571 369.736 82.1571 364.184C82.1571 357.522 83.8226 351.804 87.1535 347.03C90.5954 342.145 95.2032 338.425 100.977 335.871C106.861 333.207 113.412 331.874 120.629 331.874C128.068 331.874 134.453 333.151 139.782 335.705C145.223 338.147 149.719 341.312 153.272 345.198C156.936 348.973 159.768 352.914 161.766 357.023L143.113 367.348C141.558 364.573 139.671 362.075 137.45 359.854C135.341 357.522 132.898 355.69 130.122 354.358C127.347 352.914 124.182 352.193 120.629 352.193C115.966 352.193 112.468 353.303 110.137 355.524C107.805 357.633 106.639 360.131 106.639 363.018C106.639 365.905 107.583 368.459 109.471 370.679C111.358 372.789 114.245 374.843 118.131 376.842C122.017 378.729 126.902 380.672 132.787 382.671C136.562 384.003 140.171 385.669 143.613 387.667C147.166 389.666 150.33 392.108 153.106 394.995C155.992 397.771 158.213 401.102 159.768 404.988C161.433 408.763 162.266 413.149 162.266 418.145C162.266 423.808 161.155 428.859 158.935 433.301C156.714 437.742 153.661 441.517 149.775 444.626C145.889 447.624 141.503 449.9 136.618 451.454C131.843 453.12 126.791 453.952 121.462 453.952C114.356 453.952 107.694 452.62 101.476 449.955C95.3698 447.179 90.0403 443.46 85.488 438.797C80.9358 434.133 77.3828 429.081 74.8291 423.641L91.8168 411.65ZM195.006 426.972C195.006 429.193 195.561 431.136 196.672 432.801C197.782 434.355 199.281 435.577 201.168 436.465C203.167 437.242 205.332 437.631 207.664 437.631C210.995 437.631 213.993 436.965 216.657 435.632C219.322 434.189 221.487 432.19 223.153 429.637C224.818 426.972 225.651 423.808 225.651 420.144L228.315 430.136C228.315 435.022 226.928 439.13 224.152 442.461C221.487 445.792 217.99 448.29 213.659 449.955C209.44 451.621 204.999 452.453 200.336 452.453C195.561 452.453 191.12 451.51 187.012 449.622C182.904 447.735 179.573 445.014 177.019 441.461C174.577 437.797 173.355 433.356 173.355 428.138C173.355 420.699 175.965 414.814 181.183 410.484C186.401 406.154 193.785 403.989 203.334 403.989C208.219 403.989 212.494 404.488 216.158 405.487C219.933 406.487 223.097 407.708 225.651 409.151C228.204 410.595 230.036 411.983 231.147 413.315V423.308C228.149 421.087 224.762 419.422 220.987 418.312C217.323 417.201 213.437 416.646 209.329 416.646C205.998 416.646 203.278 417.09 201.168 417.978C199.059 418.756 197.504 419.921 196.505 421.476C195.506 422.919 195.006 424.751 195.006 426.972ZM186.679 395.828L178.685 381.172C182.682 379.062 187.567 377.064 193.341 375.176C199.114 373.178 205.554 372.178 212.66 372.178C219.211 372.178 225.04 373.122 230.147 375.01C235.255 376.897 239.252 379.673 242.139 383.337C245.026 386.89 246.469 391.276 246.469 396.494V450.788H225.651V400.991C225.651 398.881 225.318 397.105 224.651 395.661C223.985 394.107 222.93 392.83 221.487 391.831C220.155 390.831 218.545 390.11 216.657 389.666C214.77 389.221 212.66 388.999 210.328 388.999C206.776 388.999 203.389 389.388 200.169 390.165C196.949 390.942 194.174 391.886 191.842 392.997C189.51 394.107 187.789 395.051 186.679 395.828ZM256.709 374.177H304.008V392.33H256.709V374.177ZM269.866 347.53H290.684V450.788H269.866V347.53ZM319.321 424.307C322.541 427.305 325.539 429.748 328.315 431.635C331.09 433.412 333.7 434.744 336.142 435.632C338.696 436.521 341.083 436.965 343.304 436.965C346.19 436.965 348.411 436.354 349.966 435.133C351.52 433.8 352.297 432.024 352.297 429.803C352.297 427.805 351.631 426.139 350.299 424.807C349.077 423.363 347.245 422.087 344.803 420.976C342.36 419.866 339.251 418.7 335.476 417.479C331.923 416.146 328.481 414.592 325.15 412.816C321.819 410.928 319.043 408.485 316.823 405.487C314.713 402.379 313.659 398.437 313.659 393.663C313.659 389.11 314.88 385.28 317.323 382.171C319.765 378.951 323.041 376.564 327.149 375.01C331.368 373.344 336.031 372.511 341.139 372.511C345.469 372.511 349.521 373.067 353.296 374.177C357.071 375.287 360.569 376.786 363.789 378.674C367.009 380.45 369.84 382.56 372.283 385.002L362.79 398.326C360.014 395.328 356.683 392.886 352.797 390.998C349.022 389.11 345.302 388.167 341.638 388.167C339.196 388.167 337.253 388.666 335.809 389.666C334.477 390.554 333.811 391.942 333.811 393.829C333.811 395.495 334.477 396.994 335.809 398.326C337.253 399.547 339.251 400.658 341.805 401.657C344.469 402.656 347.467 403.878 350.798 405.321C354.906 406.875 358.681 408.652 362.123 410.65C365.676 412.538 368.508 414.925 370.617 417.812C372.727 420.699 373.782 424.474 373.782 429.137C373.782 436.798 371.283 442.794 366.287 447.124C361.291 451.343 354.407 453.453 345.635 453.453C340.195 453.453 335.198 452.731 330.646 451.288C326.205 449.844 322.152 447.957 318.488 445.625C314.935 443.182 311.715 440.573 308.829 437.797L319.321 424.307ZM408.499 391.664V380.839H427.318C430.76 380.839 433.758 380.284 436.312 379.173C438.865 378.063 440.808 376.453 442.141 374.343C443.584 372.234 444.306 369.736 444.306 366.849C444.306 362.408 442.752 359.021 439.643 356.69C436.645 354.358 432.537 353.192 427.318 353.192H414.494V431.802H429.816C433.814 431.802 437.422 431.247 440.642 430.136C443.862 428.915 446.36 427.027 448.137 424.474C450.024 421.92 450.968 418.645 450.968 414.648C450.968 411.761 450.413 409.318 449.302 407.319C448.303 405.21 446.804 403.489 444.806 402.157C442.918 400.713 440.697 399.714 438.144 399.159C435.59 398.493 432.814 398.159 429.816 398.159H408.499V385.169H431.982C437.644 385.169 443.029 385.78 448.137 387.001C453.355 388.222 458.018 390.165 462.126 392.83C466.234 395.384 469.454 398.715 471.786 402.823C474.229 406.931 475.45 411.872 475.45 417.645C475.45 425.306 473.618 431.58 469.954 436.465C466.401 441.35 461.349 444.959 454.798 447.291C448.248 449.622 440.642 450.788 431.982 450.788H390.678V334.206H429.483C437.256 334.206 444.084 335.316 449.969 337.537C455.853 339.646 460.461 342.866 463.792 347.196C467.123 351.527 468.788 357.023 468.788 363.684C468.788 369.569 467.123 374.621 463.792 378.84C460.461 383.059 455.853 386.279 449.969 388.5C444.084 390.609 437.256 391.664 429.483 391.664H408.499ZM514.898 374.177V450.788H493.747V374.177H514.898ZM537.382 396.661C535.938 395.328 534.439 394.329 532.885 393.663C531.442 392.886 529.61 392.497 527.389 392.497C524.724 392.497 522.448 393.219 520.561 394.662C518.673 396.105 517.23 398.159 516.23 400.824C515.342 403.378 514.898 406.487 514.898 410.151L508.902 404.155C508.902 398.048 510.068 392.663 512.4 388C514.731 383.226 517.785 379.451 521.56 376.675C525.335 373.788 529.221 372.345 533.218 372.345C535.994 372.345 538.603 372.844 541.046 373.844C543.599 374.843 545.653 376.342 547.208 378.34L537.382 396.661ZM557.642 344.532C557.642 340.979 558.919 338.092 561.472 335.871C564.026 333.54 567.079 332.374 570.632 332.374C574.185 332.374 577.183 333.54 579.626 335.871C582.179 338.092 583.456 340.979 583.456 344.532C583.456 347.974 582.179 350.86 579.626 353.192C577.183 355.524 574.185 356.69 570.632 356.69C567.079 356.69 564.026 355.524 561.472 353.192C558.919 350.86 557.642 347.974 557.642 344.532ZM559.973 374.177H580.958V450.788H559.973V374.177ZM661.647 320.882H683.298V450.788H661.647V320.882ZM598.693 412.482C598.693 403.933 600.414 396.716 603.856 390.831C607.298 384.836 611.85 380.284 617.512 377.175C623.175 374.066 629.171 372.511 635.499 372.511C641.939 372.511 647.602 374.121 652.487 377.341C657.483 380.561 661.369 385.169 664.145 391.165C667.032 397.049 668.475 404.155 668.475 412.482C668.475 420.699 667.032 427.805 664.145 433.8C661.369 439.796 657.483 444.404 652.487 447.624C647.602 450.843 641.939 452.453 635.499 452.453C629.171 452.453 623.175 450.899 617.512 447.79C611.85 444.681 607.298 440.129 603.856 434.133C600.414 428.138 598.693 420.921 598.693 412.482ZM621.01 412.482C621.01 417.035 621.954 420.976 623.841 424.307C625.729 427.638 628.282 430.192 631.502 431.968C634.722 433.745 638.164 434.633 641.828 434.633C645.048 434.633 648.157 433.8 651.155 432.135C654.263 430.358 656.762 427.805 658.649 424.474C660.648 421.143 661.647 417.146 661.647 412.482C661.647 407.819 660.648 403.822 658.649 400.491C656.762 397.16 654.263 394.662 651.155 392.997C648.157 391.22 645.048 390.332 641.828 390.332C638.164 390.332 634.722 391.22 631.502 392.997C628.282 394.773 625.729 397.327 623.841 400.658C621.954 403.989 621.01 407.93 621.01 412.482ZM700.379 456.117H721.531C721.642 459.448 722.53 462.28 724.195 464.611C725.861 467.054 728.137 468.941 731.024 470.274C733.911 471.606 737.297 472.272 741.183 472.272C744.736 472.272 748.067 471.44 751.176 469.774C754.396 468.109 756.949 465.555 758.837 462.113C760.835 458.671 761.835 454.341 761.835 449.123V374.177H782.653V449.123C782.653 458.56 780.765 466.332 776.99 472.439C773.326 478.546 768.386 482.987 762.168 485.763C755.95 488.649 749.177 490.093 741.849 490.093C732.967 490.093 725.528 488.649 719.532 485.763C713.536 482.987 708.929 478.99 705.709 473.771C702.6 468.664 700.823 462.779 700.379 456.117ZM698.88 411.816C698.88 403.267 700.601 396.105 704.043 390.332C707.485 384.447 712.038 380.006 717.7 377.008C723.363 374.01 729.358 372.511 735.687 372.511C742.127 372.511 747.789 374.066 752.675 377.175C757.671 380.284 761.557 384.78 764.333 390.665C767.22 396.438 768.663 403.489 768.663 411.816C768.663 420.032 767.22 427.083 764.333 432.968C761.557 438.852 757.671 443.349 752.675 446.458C747.789 449.456 742.127 450.955 735.687 450.955C729.358 450.955 723.363 449.456 717.7 446.458C712.038 443.46 707.485 439.074 704.043 433.301C700.601 427.416 698.88 420.255 698.88 411.816ZM721.198 411.816C721.198 416.368 722.141 420.255 724.029 423.474C725.916 426.583 728.47 428.97 731.69 430.636C734.91 432.301 738.352 433.134 742.016 433.134C745.236 433.134 748.345 432.357 751.342 430.802C754.451 429.137 756.949 426.75 758.837 423.641C760.835 420.421 761.835 416.48 761.835 411.816C761.835 408.263 761.28 405.154 760.169 402.49C759.059 399.825 757.505 397.604 755.506 395.828C753.618 394.051 751.509 392.719 749.177 391.831C746.846 390.831 744.458 390.332 742.016 390.332C738.352 390.332 734.91 391.165 731.69 392.83C728.47 394.495 725.916 396.938 724.029 400.158C722.141 403.267 721.198 407.153 721.198 411.816ZM839.721 452.453C831.394 452.453 824.121 450.788 817.904 447.457C811.686 444.126 806.856 439.518 803.414 433.634C800.083 427.638 798.418 420.588 798.418 412.482C798.418 404.266 800.083 397.216 803.414 391.331C806.856 385.335 811.686 380.728 817.904 377.508C824.121 374.177 831.449 372.511 839.888 372.511C848.326 372.511 855.487 374.066 861.372 377.175C867.368 380.173 871.92 384.614 875.029 390.498C878.138 396.272 879.692 403.267 879.692 411.483C879.692 412.482 879.637 413.537 879.525 414.648C879.525 415.758 879.47 416.646 879.359 417.312H810.742V403.989H860.539L854.71 411.65C855.154 410.983 855.543 410.095 855.876 408.985C856.32 407.764 856.542 406.764 856.542 405.987C856.542 402.212 855.82 398.992 854.377 396.327C853.045 393.663 851.102 391.553 848.548 389.999C845.994 388.444 842.996 387.667 839.554 387.667C835.335 387.667 831.782 388.611 828.896 390.498C826.12 392.275 823.955 394.995 822.4 398.659C820.957 402.212 820.18 406.653 820.069 411.983C820.069 417.09 820.79 421.42 822.234 424.973C823.788 428.526 826.064 431.247 829.062 433.134C832.06 435.022 835.668 435.965 839.888 435.965C844.662 435.965 848.715 435.077 852.045 433.301C855.487 431.413 858.319 428.637 860.539 424.973L879.359 430.802C875.362 438.019 870.032 443.46 863.371 447.124C856.82 450.677 848.937 452.453 839.721 452.453Z" fill="#BDF658"/>
</svg>
