<svg width="363" height="236" viewBox="0 0 363 236" fill="none" xmlns="http://www.w3.org/2000/svg">
<mask id="path-1-inside-1_2911_710" fill="white">
<path d="M263.032 -5.24771e-07C310.602 0 310.602 105.802 310.602 117.558C310.602 129.314 310.602 235.117 263.032 235.117"/>
</mask>
<path d="M263.032 -5.24771e-07C310.602 0 310.602 105.802 310.602 117.558C310.602 129.314 310.602 235.117 263.032 235.117" fill="#698B30" fill-opacity="0.6"/>
<path d="M263.032 -7.48775C278.243 -7.48775 289.214 1.16037 296.776 12.5814C304.226 23.8314 308.929 38.4888 311.979 52.811C318.103 81.5666 318.089 111.645 318.089 117.558L303.114 117.558C303.114 111.716 303.1 83.015 297.332 55.9304C294.436 42.3325 290.22 29.8045 284.29 20.8492C278.474 12.0649 271.606 7.48774 263.032 7.48774L263.032 -7.48775ZM318.089 117.558C318.089 123.472 318.103 153.55 311.979 182.306C308.929 196.628 304.226 211.285 296.776 222.535C289.214 233.956 278.243 242.604 263.032 242.604L263.032 227.629C271.606 227.629 278.474 223.052 284.29 214.267C290.22 205.312 294.436 192.784 297.332 179.186C303.1 152.102 303.114 123.4 303.114 117.558L318.089 117.558Z" fill="#0B0B0B" mask="url(#path-1-inside-1_2911_710)"/>
<mask id="path-3-inside-2_2911_710" fill="white">
<path d="M263.032 5.24771e-07C215.463 0 215.463 105.802 215.463 117.558C215.463 129.314 215.463 235.117 263.032 235.117"/>
</mask>
<path d="M263.032 5.24771e-07C215.463 0 215.463 105.802 215.463 117.558C215.463 129.314 215.463 235.117 263.032 235.117" fill="#698B30" fill-opacity="0.6"/>
<path d="M263.032 -7.48774C247.821 -7.48774 236.85 1.16037 229.288 12.5814C221.839 23.8314 217.136 38.4888 214.086 52.811C207.961 81.5666 207.975 111.645 207.975 117.558L222.951 117.558C222.951 111.716 222.964 83.015 228.733 55.9304C231.628 42.3325 235.845 29.8045 241.774 20.8492C247.591 12.0649 254.458 7.48775 263.032 7.48775L263.032 -7.48774ZM207.975 117.558C207.975 123.472 207.961 153.55 214.086 182.306C217.136 196.628 221.839 211.285 229.288 222.535C236.85 233.956 247.821 242.604 263.032 242.604L263.032 227.629C254.458 227.629 247.591 223.052 241.774 214.267C235.845 205.312 231.628 192.784 228.733 179.186C222.964 152.102 222.951 123.4 222.951 117.558L207.975 117.558Z" fill="#0B0B0B" mask="url(#path-3-inside-2_2911_710)"/>
<mask id="path-5-inside-3_2911_710" fill="white">
<path d="M333.77 27C362.846 27 362.846 70.4189 362.846 75.2432C362.846 80.0675 362.846 123.486 333.77 123.486"/>
</mask>
<path d="M333.77 27C362.846 27 362.846 70.4189 362.846 75.2432C362.846 80.0675 362.846 123.486 333.77 123.486" fill="#FFF792"/>
<path d="M333.77 24C341.885 24 348.094 27.0666 352.715 31.753C357.261 36.3617 360.176 42.4305 362.071 48.4054C365.856 60.3388 365.846 72.803 365.846 75.2432L359.846 75.2432C359.846 72.8591 359.835 61.2017 356.352 50.2196C354.613 44.7367 352.076 39.6493 348.443 35.9661C344.888 32.3607 340.194 30 333.77 30L333.77 24ZM365.846 75.2432C365.846 77.6834 365.856 90.1476 362.071 102.081C360.176 108.056 357.261 114.125 352.715 118.733C348.094 123.42 341.885 126.486 333.77 126.486L333.77 120.486C340.194 120.486 344.888 118.126 348.444 114.52C352.076 110.837 354.613 105.75 356.352 100.267C359.835 89.2847 359.846 77.6274 359.846 75.2432L365.846 75.2432Z" fill="#0B0B0B" mask="url(#path-5-inside-3_2911_710)"/>
<mask id="path-7-inside-4_2911_710" fill="white">
<path d="M333.771 27C304.695 27 304.695 70.4189 304.695 75.2432C304.695 80.0675 304.695 123.486 333.771 123.486"/>
</mask>
<path d="M333.771 27C304.695 27 304.695 70.4189 304.695 75.2432C304.695 80.0675 304.695 123.486 333.771 123.486" fill="#FFF792"/>
<path d="M333.771 24C325.656 24 319.447 27.0666 314.826 31.753C310.28 36.3617 307.365 42.4305 305.47 48.4054C301.685 60.3388 301.695 72.803 301.695 75.2432L307.695 75.2432C307.695 72.8591 307.706 61.2017 311.189 50.2196C312.929 44.7367 315.465 39.6493 319.098 35.9661C322.653 32.3607 327.347 30 333.771 30L333.771 24ZM301.695 75.2432C301.695 77.6834 301.685 90.1476 305.47 102.081C307.365 108.056 310.28 114.125 314.826 118.733C319.447 123.42 325.656 126.486 333.771 126.486L333.771 120.486C327.347 120.486 322.653 118.126 319.098 114.52C315.465 110.837 312.929 105.75 311.189 100.267C307.706 89.2847 307.695 77.6274 307.695 75.2432L301.695 75.2432Z" fill="#0B0B0B" mask="url(#path-7-inside-4_2911_710)"/>
<mask id="path-9-inside-5_2911_710" fill="white">
<path d="M203.389 27L332.544 27C362.933 27 362.933 70.4189 362.933 75.2432C362.933 80.0675 362.933 123.486 332.544 123.486L203.389 123.486C173 123.486 173 80.0675 173 75.2432C173 70.4189 173 27 203.389 27Z"/>
</mask>
<path d="M203.389 27L332.544 27C362.933 27 362.933 70.4189 362.933 75.2432C362.933 80.0675 362.933 123.486 332.544 123.486L203.389 123.486C173 123.486 173 80.0675 173 75.2432C173 70.4189 173 27 203.389 27Z" fill="#FFF792"/>
<path d="M332.544 123.486L332.544 126.486L332.544 123.486ZM203.389 123.486L203.389 120.486L203.389 123.486ZM203.389 30L332.544 30L332.544 24L203.389 24L203.389 30ZM332.544 30C339.339 30 344.293 32.3942 348.023 36.0128C351.826 39.702 354.473 44.7871 356.287 50.2566C359.922 61.2211 359.933 72.8615 359.933 75.2432L365.933 75.2432C365.933 72.8006 365.944 60.3194 361.982 48.3684C359.996 42.3802 356.945 36.309 352.201 31.7064C347.384 27.0332 340.943 24 332.544 24L332.544 30ZM359.933 75.2432C359.933 77.625 359.922 89.2654 356.287 100.23C354.473 105.699 351.826 110.784 348.023 114.474C344.293 118.092 339.339 120.486 332.544 120.486L332.544 126.486C340.943 126.486 347.384 123.453 352.201 118.78C356.945 114.177 359.996 108.106 361.982 102.118C365.944 90.167 365.933 77.6858 365.933 75.2432L359.933 75.2432ZM332.544 120.486L203.389 120.486L203.389 126.486L332.544 126.486L332.544 120.486ZM203.389 120.486C196.594 120.486 191.639 118.092 187.909 114.474C184.107 110.784 181.46 105.699 179.646 100.23C176.011 89.2654 176 77.625 176 75.2432L170 75.2432C170 77.6858 169.989 90.167 173.951 102.118C175.936 108.106 178.987 114.177 183.732 118.78C188.549 123.453 194.99 126.486 203.389 126.486L203.389 120.486ZM176 75.2432C176 72.8615 176.011 61.2211 179.646 50.2566C181.46 44.787 184.107 39.702 187.909 36.0128C191.639 32.3942 196.594 30 203.389 30L203.389 24C194.99 24 188.549 27.0332 183.732 31.7064C178.987 36.309 175.936 42.3802 173.951 48.3684C169.989 60.3194 170 72.8006 170 75.2432L176 75.2432Z" fill="#0B0B0B" mask="url(#path-9-inside-5_2911_710)"/>
<g opacity="0.89">
<path d="M226.684 63.5371L226.684 59.3643L243.31 59.3643L243.31 63.5371L226.684 63.5371ZM240.367 50.8571L244.992 50.8571L244.992 73.5L240.367 73.5L240.367 50.8571ZM225.163 50.8571L229.789 50.8571L229.789 73.5L225.163 73.5L225.163 50.8571ZM247.602 55.0298L247.602 50.8571L264.422 50.8571L264.422 55.0298L258.309 55.0298L258.309 73.5L253.683 73.5L253.683 55.0298L247.602 55.0298ZM267.05 50.8571L271.676 50.8571L271.676 69.4566L280.701 69.4566L280.701 73.5L267.05 73.5L267.05 50.8571ZM286.091 62.1785C286.091 63.6665 286.425 64.9712 287.094 66.0925C287.784 67.1923 288.679 68.0441 289.778 68.6479C290.878 69.2302 292.075 69.5213 293.369 69.5213C294.447 69.5213 295.407 69.3811 296.248 69.1008C297.089 68.8205 297.844 68.4431 298.512 67.9687C299.202 67.4942 299.795 66.9767 300.291 66.416L300.291 71.6239C299.364 72.3571 298.35 72.9285 297.251 73.3383C296.172 73.748 294.803 73.9529 293.143 73.9529C291.417 73.9529 289.811 73.6725 288.323 73.1118C286.856 72.5512 285.573 71.7425 284.474 70.6858C283.395 69.6291 282.554 68.3892 281.95 66.9659C281.368 65.5211 281.077 63.9253 281.077 62.1785C281.077 60.4318 281.368 58.8468 281.95 57.4235C282.554 55.9787 283.395 54.7279 284.474 53.6713C285.573 52.6146 286.856 51.8059 288.323 51.2452C289.811 50.6845 291.417 50.4042 293.143 50.4042C294.803 50.4042 296.172 50.6091 297.251 51.0188C298.35 51.4285 299.364 52 300.291 52.7332L300.291 57.9411C299.795 57.3804 299.202 56.8628 298.512 56.3884C297.844 55.914 297.089 55.5366 296.248 55.2563C295.407 54.9759 294.447 54.8358 293.369 54.8358C292.075 54.8357 290.878 55.1377 289.778 55.7415C288.679 56.3237 287.784 57.1647 287.094 58.2645C286.425 59.3643 286.091 60.669 286.091 62.1785Z" fill="#0B0B0B"/>
</g>
<mask id="path-12-inside-6_2911_710" fill="white">
<path d="M335.607 27.0002C306.531 27.0002 306.531 70.4191 306.531 75.2435C306.531 80.0678 306.531 123.487 335.607 123.487"/>
</mask>
<path d="M335.607 24.0002C327.492 24.0002 321.283 27.0669 316.661 31.7533C312.116 36.362 309.201 42.4307 307.306 48.4057C303.521 60.339 303.531 72.8033 303.531 75.2435L309.531 75.2435C309.531 72.8593 309.542 61.202 313.025 50.2198C314.764 44.737 317.301 39.6495 320.933 35.9664C324.489 32.361 329.183 30.0002 335.607 30.0002L335.607 24.0002ZM303.531 75.2435C303.531 77.6836 303.521 90.1479 307.306 102.081C309.201 108.056 312.116 114.125 316.661 118.734C321.283 123.42 327.492 126.487 335.607 126.487L335.607 120.487C329.183 120.487 324.489 118.126 320.933 114.521C317.301 110.837 314.764 105.75 313.025 100.267C309.542 89.285 309.531 77.6276 309.531 75.2435L303.531 75.2435Z" fill="#0B0B0B" mask="url(#path-12-inside-6_2911_710)"/>
<mask id="path-14-inside-7_2911_710" fill="white">
<path d="M335.607 27.0002C306.531 27.0002 306.531 70.4191 306.531 75.2435C306.531 80.0678 306.531 123.487 335.607 123.487"/>
</mask>
<path d="M335.607 24.0002C327.492 24.0002 321.283 27.0669 316.661 31.7533C312.116 36.362 309.201 42.4307 307.306 48.4057C303.521 60.339 303.531 72.8033 303.531 75.2435L309.531 75.2435C309.531 72.8593 309.542 61.202 313.025 50.2198C314.764 44.737 317.301 39.6495 320.933 35.9664C324.489 32.361 329.183 30.0002 335.607 30.0002L335.607 24.0002ZM303.531 75.2435C303.531 77.6836 303.521 90.1479 307.306 102.081C309.201 108.056 312.116 114.125 316.661 118.734C321.283 123.42 327.492 126.487 335.607 126.487L335.607 120.487C329.183 120.487 324.489 118.126 320.933 114.521C317.301 110.837 314.764 105.75 313.025 100.267C309.542 89.285 309.531 77.6276 309.531 75.2435L303.531 75.2435Z" fill="#0B0B0B" mask="url(#path-14-inside-7_2911_710)"/>
<mask id="path-16-inside-8_2911_710" fill="white">
<path d="M326.77 121C355.846 121 355.846 164.419 355.846 169.243C355.846 174.068 355.846 217.486 326.77 217.486"/>
</mask>
<path d="M326.77 121C355.846 121 355.846 164.419 355.846 169.243C355.846 174.068 355.846 217.486 326.77 217.486" fill="#FFF792"/>
<path d="M326.77 118C334.885 118 341.094 121.067 345.715 125.753C350.261 130.362 353.176 136.431 355.071 142.405C358.856 154.339 358.846 166.803 358.846 169.243L352.846 169.243C352.846 166.859 352.835 155.202 349.352 144.22C347.613 138.737 345.076 133.649 341.443 129.966C337.888 126.361 333.194 124 326.77 124L326.77 118ZM358.846 169.243C358.846 171.683 358.856 184.148 355.071 196.081C353.176 202.056 350.261 208.125 345.715 212.733C341.094 217.42 334.885 220.486 326.77 220.486L326.77 214.486C333.194 214.486 337.888 212.126 341.444 208.52C345.076 204.837 347.613 199.75 349.352 194.267C352.835 183.285 352.846 171.627 352.846 169.243L358.846 169.243Z" fill="#0B0B0B" mask="url(#path-16-inside-8_2911_710)"/>
<mask id="path-18-inside-9_2911_710" fill="white">
<path d="M326.771 121C297.695 121 297.695 164.419 297.695 169.243C297.695 174.068 297.695 217.486 326.771 217.486"/>
</mask>
<path d="M326.771 121C297.695 121 297.695 164.419 297.695 169.243C297.695 174.068 297.695 217.486 326.771 217.486" fill="#FFF792"/>
<path d="M326.771 118C318.656 118 312.447 121.067 307.826 125.753C303.28 130.362 300.365 136.431 298.47 142.405C294.685 154.339 294.695 166.803 294.695 169.243L300.695 169.243C300.695 166.859 300.706 155.202 304.189 144.22C305.929 138.737 308.465 133.649 312.098 129.966C315.653 126.361 320.347 124 326.771 124L326.771 118ZM294.695 169.243C294.695 171.683 294.685 184.148 298.47 196.081C300.365 202.056 303.28 208.125 307.826 212.733C312.447 217.42 318.656 220.486 326.771 220.486L326.771 214.486C320.347 214.486 315.653 212.126 312.098 208.52C308.465 204.837 305.929 199.75 304.189 194.267C300.706 183.285 300.695 171.627 300.695 169.243L294.695 169.243Z" fill="#0B0B0B" mask="url(#path-18-inside-9_2911_710)"/>
<mask id="path-20-inside-10_2911_710" fill="white">
<path d="M196.389 121L325.544 121C355.933 121 355.933 164.419 355.933 169.243C355.933 174.068 355.933 217.486 325.544 217.486L196.389 217.486C166 217.486 166 174.068 166 169.243C166 164.419 166 121 196.389 121Z"/>
</mask>
<path d="M196.389 121L325.544 121C355.933 121 355.933 164.419 355.933 169.243C355.933 174.068 355.933 217.486 325.544 217.486L196.389 217.486C166 217.486 166 174.068 166 169.243C166 164.419 166 121 196.389 121Z" fill="#FFF792"/>
<path d="M196.389 124L325.544 124L325.544 118L196.389 118L196.389 124ZM325.544 124C332.339 124 337.293 126.394 341.023 130.013C344.826 133.702 347.473 138.787 349.287 144.257C352.922 155.221 352.933 166.861 352.933 169.243L358.933 169.243C358.933 166.801 358.944 154.319 354.982 142.368C352.996 136.38 349.945 130.309 345.201 125.706C340.384 121.033 333.943 118 325.544 118L325.544 124ZM352.933 169.243C352.933 171.625 352.922 183.265 349.287 194.23C347.473 199.699 344.826 204.784 341.023 208.474C337.293 212.092 332.339 214.486 325.544 214.486L325.544 220.486C333.943 220.486 340.384 217.453 345.201 212.78C349.945 208.177 352.996 202.106 354.982 196.118C358.944 184.167 358.933 171.686 358.933 169.243L352.933 169.243ZM325.544 214.486L196.389 214.486L196.389 220.486L325.544 220.486L325.544 214.486ZM196.389 214.486C189.594 214.486 184.639 212.092 180.909 208.474C177.107 204.784 174.46 199.699 172.646 194.23C169.011 183.265 169 171.625 169 169.243L163 169.243C163 171.686 162.989 184.167 166.951 196.118C168.936 202.106 171.987 208.177 176.732 212.78C181.549 217.453 187.99 220.486 196.389 220.486L196.389 214.486ZM169 169.243C169 166.861 169.011 155.221 172.646 144.257C174.46 138.787 177.107 133.702 180.909 130.013C184.639 126.394 189.594 124 196.389 124L196.389 118C187.99 118 181.549 121.033 176.732 125.706C171.987 130.309 168.936 136.38 166.951 142.368C162.989 154.319 163 166.801 163 169.243L169 169.243Z" fill="#0B0B0B" mask="url(#path-20-inside-10_2911_710)"/>
<g opacity="0.89">
<path d="M220.684 177.537L220.684 173.364L237.31 173.364L237.31 177.537L220.684 177.537ZM234.367 164.857L238.992 164.857L238.992 187.5L234.367 187.5L234.367 164.857ZM219.163 164.857L223.789 164.857L223.789 187.5L219.163 187.5L219.163 164.857ZM241.602 169.03L241.602 164.857L258.422 164.857L258.422 169.03L252.309 169.03L252.309 187.5L247.683 187.5L247.683 169.03L241.602 169.03ZM261.05 164.857L265.676 164.857L265.676 183.457L274.701 183.457L274.701 187.5L261.05 187.5L261.05 164.857ZM280.091 176.179C280.091 177.666 280.425 178.971 281.094 180.093C281.784 181.192 282.679 182.044 283.778 182.648C284.878 183.23 286.075 183.521 287.369 183.521C288.447 183.521 289.407 183.381 290.248 183.101C291.089 182.82 291.844 182.443 292.512 181.969C293.202 181.494 293.795 180.977 294.291 180.416L294.291 185.624C293.364 186.357 292.35 186.929 291.251 187.338C290.172 187.748 288.803 187.953 287.143 187.953C285.417 187.953 283.811 187.673 282.323 187.112C280.856 186.551 279.573 185.742 278.474 184.686C277.395 183.629 276.554 182.389 275.95 180.966C275.368 179.521 275.077 177.925 275.077 176.179C275.077 174.432 275.368 172.847 275.95 171.424C276.554 169.979 277.395 168.728 278.474 167.671C279.573 166.615 280.856 165.806 282.323 165.245C283.811 164.685 285.417 164.404 287.143 164.404C288.803 164.404 290.172 164.609 291.251 165.019C292.35 165.429 293.364 166 294.291 166.733L294.291 171.941C293.795 171.38 293.202 170.863 292.512 170.388C291.844 169.914 291.089 169.537 290.248 169.256C289.407 168.976 288.447 168.836 287.369 168.836C286.075 168.836 284.878 169.138 283.778 169.741C282.679 170.324 281.784 171.165 281.094 172.265C280.425 173.364 280.091 174.669 280.091 176.179Z" fill="#0B0B0B"/>
</g>
<mask id="path-23-inside-11_2911_710" fill="white">
<path d="M328.607 121C299.531 121 299.531 164.419 299.531 169.243C299.531 174.068 299.531 217.487 328.607 217.487"/>
</mask>
<path d="M328.607 118C320.492 118 314.283 121.067 309.661 125.753C305.116 130.362 302.201 136.431 300.306 142.406C296.521 154.339 296.531 166.803 296.531 169.243L302.531 169.243C302.531 166.859 302.542 155.202 306.025 144.22C307.764 138.737 310.301 133.649 313.933 129.966C317.489 126.361 322.183 124 328.607 124L328.607 118ZM296.531 169.243C296.531 171.684 296.521 184.148 300.306 196.081C302.201 202.056 305.116 208.125 309.661 212.734C314.283 217.42 320.492 220.487 328.607 220.487L328.607 214.487C322.183 214.487 317.489 212.126 313.933 208.521C310.301 204.837 307.764 199.75 306.025 194.267C302.542 183.285 302.531 171.628 302.531 169.243L296.531 169.243Z" fill="#0B0B0B" mask="url(#path-23-inside-11_2911_710)"/>
<mask id="path-25-inside-12_2911_710" fill="white">
<path d="M328.607 121C299.531 121 299.531 164.419 299.531 169.243C299.531 174.068 299.531 217.487 328.607 217.487"/>
</mask>
<path d="M328.607 118C320.492 118 314.283 121.067 309.661 125.753C305.116 130.362 302.201 136.431 300.306 142.406C296.521 154.339 296.531 166.803 296.531 169.243L302.531 169.243C302.531 166.859 302.542 155.202 306.025 144.22C307.764 138.737 310.301 133.649 313.933 129.966C317.489 126.361 322.183 124 328.607 124L328.607 118ZM296.531 169.243C296.531 171.684 296.521 184.148 300.306 196.081C302.201 202.056 305.116 208.125 309.661 212.734C314.283 217.42 320.492 220.487 328.607 220.487L328.607 214.487C322.183 214.487 317.489 212.126 313.933 208.521C310.301 204.837 307.764 199.75 306.025 194.267C302.542 183.285 302.531 171.628 302.531 169.243L296.531 169.243Z" fill="#0B0B0B" mask="url(#path-25-inside-12_2911_710)"/>
<mask id="path-27-inside-13_2911_710" fill="white">
<path d="M282.77 62C311.846 62 311.846 105.419 311.846 110.243C311.846 115.068 311.846 158.486 282.77 158.486"/>
</mask>
<path d="M282.77 62C311.846 62 311.846 105.419 311.846 110.243C311.846 115.068 311.846 158.486 282.77 158.486" fill="#FFF792"/>
<path d="M282.77 59C290.885 59 297.094 62.0666 301.715 66.753C306.261 71.3617 309.176 77.4305 311.071 83.4054C314.856 95.3388 314.846 107.803 314.846 110.243L308.846 110.243C308.846 107.859 308.835 96.2017 305.352 85.2196C303.613 79.7367 301.076 74.6493 297.443 70.9661C293.888 67.3607 289.194 65 282.77 65L282.77 59ZM314.846 110.243C314.846 112.683 314.856 125.148 311.071 137.081C309.176 143.056 306.261 149.125 301.715 153.733C297.094 158.42 290.885 161.486 282.77 161.486L282.77 155.486C289.194 155.486 293.888 153.126 297.444 149.52C301.076 145.837 303.613 140.75 305.352 135.267C308.835 124.285 308.846 112.627 308.846 110.243L314.846 110.243Z" fill="#0B0B0B" mask="url(#path-27-inside-13_2911_710)"/>
<mask id="path-29-inside-14_2911_710" fill="white">
<path d="M282.771 62C253.695 62 253.695 105.419 253.695 110.243C253.695 115.068 253.695 158.486 282.771 158.486"/>
</mask>
<path d="M282.771 62C253.695 62 253.695 105.419 253.695 110.243C253.695 115.068 253.695 158.486 282.771 158.486" fill="#FFF792"/>
<path d="M282.771 59C274.656 59 268.447 62.0666 263.826 66.753C259.28 71.3617 256.365 77.4305 254.47 83.4054C250.685 95.3388 250.695 107.803 250.695 110.243L256.695 110.243C256.695 107.859 256.706 96.2017 260.189 85.2196C261.929 79.7367 264.465 74.6493 268.098 70.9661C271.653 67.3607 276.347 65 282.771 65L282.771 59ZM250.695 110.243C250.695 112.683 250.685 125.148 254.47 137.081C256.365 143.056 259.28 149.125 263.826 153.733C268.447 158.42 274.656 161.486 282.771 161.486L282.771 155.486C276.347 155.486 271.653 153.126 268.098 149.52C264.465 145.837 261.929 140.75 260.189 135.267C256.706 124.285 256.695 112.627 256.695 110.243L250.695 110.243Z" fill="#0B0B0B" mask="url(#path-29-inside-14_2911_710)"/>
<mask id="path-31-inside-15_2911_710" fill="white">
<path d="M152.389 62L281.544 62C311.933 62 311.933 105.419 311.933 110.243C311.933 115.068 311.933 158.486 281.544 158.486L152.389 158.486C122 158.486 122 115.068 122 110.243C122 105.419 122 62 152.389 62Z"/>
</mask>
<path d="M152.389 62L281.544 62C311.933 62 311.933 105.419 311.933 110.243C311.933 115.068 311.933 158.486 281.544 158.486L152.389 158.486C122 158.486 122 115.068 122 110.243C122 105.419 122 62 152.389 62Z" fill="#FFF792"/>
<path d="M152.389 65L281.544 65L281.544 59L152.389 59L152.389 65ZM281.544 65C288.339 65 293.293 67.3942 297.023 71.0128C300.826 74.702 303.473 79.7871 305.287 85.2566C308.922 96.2211 308.933 107.861 308.933 110.243L314.933 110.243C314.933 107.801 314.944 95.3194 310.982 83.3684C308.996 77.3802 305.945 71.309 301.201 66.7064C296.384 62.0332 289.943 59 281.544 59L281.544 65ZM308.933 110.243C308.933 112.625 308.922 124.265 305.287 135.23C303.473 140.699 300.826 145.784 297.023 149.474C293.293 153.092 288.339 155.486 281.544 155.486L281.544 161.486C289.943 161.486 296.384 158.453 301.201 153.78C305.945 149.177 308.996 143.106 310.982 137.118C314.944 125.167 314.933 112.686 314.933 110.243L308.933 110.243ZM281.544 155.486L152.389 155.486L152.389 161.486L281.544 161.486L281.544 155.486ZM152.389 155.486C145.594 155.486 140.639 153.092 136.909 149.474C133.107 145.784 130.46 140.699 128.646 135.23C125.011 124.265 125 112.625 125 110.243L119 110.243C119 112.686 118.989 125.167 122.951 137.118C124.936 143.106 127.987 149.177 132.732 153.78C137.549 158.453 143.99 161.486 152.389 161.486L152.389 155.486ZM125 110.243C125 107.861 125.011 96.2211 128.646 85.2566C130.46 79.787 133.107 74.702 136.909 71.0128C140.639 67.3942 145.594 65 152.389 65L152.389 59C143.99 59 137.549 62.0332 132.732 66.7064C127.987 71.309 124.936 77.3802 122.951 83.3684C118.989 95.3194 119 107.801 119 110.243L125 110.243Z" fill="#0B0B0B" mask="url(#path-31-inside-15_2911_710)"/>
<g opacity="0.89">
<path d="M176.684 111.537L176.684 107.364L193.31 107.364L193.31 111.537L176.684 111.537ZM190.367 98.8571L194.992 98.8571L194.992 121.5L190.367 121.5L190.367 98.8571ZM175.163 98.8571L179.789 98.8571L179.789 121.5L175.163 121.5L175.163 98.8571ZM197.602 103.03L197.602 98.8571L214.422 98.8571L214.422 103.03L208.309 103.03L208.309 121.5L203.683 121.5L203.683 103.03L197.602 103.03ZM217.05 98.8571L221.676 98.8571L221.676 117.457L230.701 117.457L230.701 121.5L217.05 121.5L217.05 98.8571ZM236.091 110.179C236.091 111.666 236.425 112.971 237.094 114.093C237.784 115.192 238.679 116.044 239.778 116.648C240.878 117.23 242.075 117.521 243.369 117.521C244.447 117.521 245.407 117.381 246.248 117.101C247.089 116.82 247.844 116.443 248.512 115.969C249.202 115.494 249.795 114.977 250.291 114.416L250.291 119.624C249.364 120.357 248.35 120.929 247.251 121.338C246.172 121.748 244.803 121.953 243.143 121.953C241.417 121.953 239.811 121.673 238.323 121.112C236.856 120.551 235.573 119.742 234.474 118.686C233.395 117.629 232.554 116.389 231.95 114.966C231.368 113.521 231.077 111.925 231.077 110.179C231.077 108.432 231.368 106.847 231.95 105.424C232.554 103.979 233.395 102.728 234.474 101.671C235.573 100.615 236.856 99.8059 238.323 99.2452C239.811 98.6845 241.417 98.4042 243.143 98.4042C244.803 98.4042 246.172 98.6091 247.251 99.0188C248.35 99.4285 249.364 100 250.291 100.733L250.291 105.941C249.795 105.38 249.202 104.863 248.512 104.388C247.844 103.914 247.089 103.537 246.248 103.256C245.407 102.976 244.447 102.836 243.369 102.836C242.075 102.836 240.878 103.138 239.778 103.741C238.679 104.324 237.784 105.165 237.094 106.265C236.425 107.364 236.091 108.669 236.091 110.179Z" fill="#0B0B0B"/>
</g>
<mask id="path-34-inside-16_2911_710" fill="white">
<path d="M284.607 62.0002C255.531 62.0002 255.531 105.419 255.531 110.243C255.531 115.068 255.531 158.487 284.607 158.487"/>
</mask>
<path d="M284.607 59.0002C276.492 59.0002 270.283 62.0669 265.661 66.7533C261.116 71.362 258.201 77.4307 256.306 83.4057C252.521 95.339 252.531 107.803 252.531 110.243L258.531 110.243C258.531 107.859 258.542 96.202 262.025 85.2198C263.764 79.737 266.301 74.6495 269.933 70.9664C273.489 67.361 278.183 65.0002 284.607 65.0002L284.607 59.0002ZM252.531 110.243C252.531 112.684 252.521 125.148 256.306 137.081C258.201 143.056 261.116 149.125 265.661 153.734C270.283 158.42 276.492 161.487 284.607 161.487L284.607 155.487C278.183 155.487 273.489 153.126 269.933 149.521C266.301 145.837 263.764 140.75 262.025 135.267C258.542 124.285 258.531 112.628 258.531 110.243L252.531 110.243Z" fill="#0B0B0B" mask="url(#path-34-inside-16_2911_710)"/>
<mask id="path-36-inside-17_2911_710" fill="white">
<path d="M284.607 62.0002C255.531 62.0002 255.531 105.419 255.531 110.243C255.531 115.068 255.531 158.487 284.607 158.487"/>
</mask>
<path d="M284.607 59.0002C276.492 59.0002 270.283 62.0669 265.661 66.7533C261.116 71.362 258.201 77.4307 256.306 83.4057C252.521 95.339 252.531 107.803 252.531 110.243L258.531 110.243C258.531 107.859 258.542 96.202 262.025 85.2198C263.764 79.737 266.301 74.6495 269.933 70.9664C273.489 67.361 278.183 65.0002 284.607 65.0002L284.607 59.0002ZM252.531 110.243C252.531 112.684 252.521 125.148 256.306 137.081C258.201 143.056 261.116 149.125 265.661 153.734C270.283 158.42 276.492 161.487 284.607 161.487L284.607 155.487C278.183 155.487 273.489 153.126 269.933 149.521C266.301 145.837 263.764 140.75 262.025 135.267C258.542 124.285 258.531 112.628 258.531 110.243L252.531 110.243Z" fill="#0B0B0B" mask="url(#path-36-inside-17_2911_710)"/>
<mask id="path-38-inside-18_2911_710" fill="white">
<path fill-rule="evenodd" clip-rule="evenodd" d="M262.116 0.0171704C261.755 0.00575221 261.391 2.88358e-06 261.025 2.87953e-06L49.7206 5.48483e-07C0.00195313 0 0.00195469 105.802 0.00195486 117.558C0.00195503 129.314 0.00195659 235.117 49.7206 235.117L261.025 235.117C261.396 235.117 261.765 235.111 262.131 235.099C215.605 233.562 215.605 129.227 215.605 117.558C215.605 105.89 215.605 1.57565 262.116 0.0171704ZM301.858 191.224C310.743 160.641 310.743 124.18 310.743 117.558C310.743 110.938 310.743 74.4925 301.864 43.913C310.359 74.4923 310.359 110.938 310.359 117.558C310.359 124.18 310.359 160.64 301.858 191.224Z"/>
</mask>
<path fill-rule="evenodd" clip-rule="evenodd" d="M262.116 0.0171704C261.755 0.00575221 261.391 2.88358e-06 261.025 2.87953e-06L49.7206 5.48483e-07C0.00195313 0 0.00195469 105.802 0.00195486 117.558C0.00195503 129.314 0.00195659 235.117 49.7206 235.117L261.025 235.117C261.396 235.117 261.765 235.111 262.131 235.099C215.605 233.562 215.605 129.227 215.605 117.558C215.605 105.89 215.605 1.57565 262.116 0.0171704ZM301.858 191.224C310.743 160.641 310.743 124.18 310.743 117.558C310.743 110.938 310.743 74.4925 301.864 43.913C310.359 74.4923 310.359 110.938 310.359 117.558C310.359 124.18 310.359 160.64 301.858 191.224Z" fill="#BCF658" fill-opacity="0.9"/>
<path d="M262.116 0.0171704L262.21 2.8235L262.205 -2.78933L262.116 0.0171704ZM262.131 235.099L262.221 237.905L262.224 232.293L262.131 235.099ZM301.858 191.224L299.153 190.472L304.554 192.008L301.858 191.224ZM301.864 43.913L304.561 43.13L299.159 44.6647L301.864 43.913ZM261.025 2.80791C261.362 2.80791 261.696 2.8132 262.027 2.82367L262.205 -2.78933C261.814 -2.80169 261.421 -2.8079 261.025 -2.8079L261.025 2.80791ZM49.7206 2.80791L261.025 2.80791L261.025 -2.8079L49.7206 -2.8079L49.7206 2.80791ZM2.80986 117.558C2.80986 111.695 2.8154 82.5746 8.95761 54.9808C12.0329 41.1651 16.5952 27.981 23.2859 18.3132C29.9247 8.72041 38.4777 2.8079 49.7206 2.80791L49.7206 -2.8079C36.1041 -2.8079 26.0126 4.5049 18.6681 15.1174C11.3754 25.655 6.61551 39.6562 3.47596 53.7606C-2.81149 82.007 -2.80595 111.666 -2.80595 117.558L2.80986 117.558ZM49.7206 232.309C38.4777 232.309 29.9247 226.396 23.2859 216.803C16.5952 207.136 12.0329 193.951 8.95761 180.136C2.8154 152.542 2.80986 123.422 2.80986 117.558L-2.80595 117.558C-2.80595 123.451 -2.81149 153.11 3.47596 181.356C6.61551 195.46 11.3754 209.462 18.6681 219.999C26.0126 230.612 36.1041 237.924 49.7206 237.924L49.7206 232.309ZM261.025 232.309L49.7206 232.309L49.7206 237.924L261.025 237.924L261.025 232.309ZM262.041 232.292C261.705 232.303 261.367 232.309 261.025 232.309L261.025 237.924C261.426 237.924 261.825 237.918 262.221 237.905L262.041 232.292ZM262.224 232.293C251.827 231.949 243.836 225.918 237.596 216.208C231.323 206.448 227.049 193.284 224.169 179.552C218.418 152.126 218.413 123.378 218.413 117.558L212.798 117.558C212.798 123.407 212.793 152.662 218.673 180.704C221.609 194.706 226.058 208.644 232.871 219.244C239.716 229.894 249.172 237.48 262.038 237.905L262.224 232.293ZM218.413 117.558C218.413 111.738 218.418 82.9962 224.167 55.5726C227.046 41.8415 231.319 28.6779 237.59 18.9173C243.829 9.2058 251.817 3.17176 262.21 2.8235L262.022 -2.78916C249.16 -2.35818 239.707 5.23149 232.865 15.8819C226.054 26.4831 221.606 40.4195 218.671 54.4203C212.793 82.4603 212.798 111.709 212.798 117.558L218.413 117.558ZM307.935 117.558C307.935 124.194 307.923 160.285 299.162 190.441L304.554 192.008C313.564 160.996 313.551 124.166 313.551 117.558L307.935 117.558ZM299.167 44.696C307.923 74.8475 307.935 110.924 307.935 117.558L313.551 117.558C313.551 110.952 313.564 74.1374 304.561 43.13L299.167 44.696ZM299.159 44.6647C307.54 74.8321 307.551 110.923 307.551 117.558L313.167 117.558C313.167 110.952 313.179 74.1526 304.569 43.1614L299.159 44.6647ZM307.551 117.558C307.551 124.194 307.539 160.301 299.153 190.472L304.563 191.976C313.179 160.98 313.167 124.165 313.167 117.558L307.551 117.558Z" fill="#0B0B0B" mask="url(#path-38-inside-18_2911_710)"/>
<mask id="path-40-inside-19_2911_710" fill="white">
<path d="M266.032 0.00122123C218.463 0.0012207 218.463 105.804 218.463 117.56C218.463 129.315 218.463 235.118 266.032 235.118"/>
</mask>
<path d="M266.032 -7.48652C250.821 -7.48652 239.85 1.16159 232.288 12.5827C224.839 23.8327 220.136 38.49 217.086 52.8122C210.961 81.5678 210.975 111.646 210.975 117.56L225.951 117.56C225.951 111.717 225.964 83.0162 231.733 55.9316C234.628 42.3337 238.845 29.8057 244.774 20.8504C250.591 12.0662 257.458 7.48897 266.032 7.48897L266.032 -7.48652ZM210.975 117.56C210.975 123.473 210.961 153.551 217.086 182.307C220.136 196.629 224.839 211.286 232.288 222.536C239.85 233.957 250.821 242.606 266.032 242.606L266.032 227.63C257.458 227.63 250.591 223.053 244.774 214.269C238.845 205.313 234.628 192.785 231.733 179.187C225.964 152.103 225.951 123.402 225.951 117.56L210.975 117.56Z" fill="#0B0B0B" mask="url(#path-40-inside-19_2911_710)"/>
<mask id="path-42-inside-20_2911_710" fill="white">
<path d="M266.032 0.00122123C218.463 0.0012207 218.463 105.804 218.463 117.56C218.463 129.315 218.463 235.118 266.032 235.118"/>
</mask>
<path d="M266.032 -7.48652C250.821 -7.48652 239.85 1.16159 232.288 12.5827C224.839 23.8327 220.136 38.49 217.086 52.8122C210.961 81.5678 210.975 111.646 210.975 117.56L225.951 117.56C225.951 111.717 225.964 83.0162 231.733 55.9316C234.628 42.3337 238.845 29.8057 244.774 20.8504C250.591 12.0662 257.458 7.48897 266.032 7.48897L266.032 -7.48652ZM210.975 117.56C210.975 123.473 210.961 153.551 217.086 182.307C220.136 196.629 224.839 211.286 232.288 222.536C239.85 233.957 250.821 242.606 266.032 242.606L266.032 227.63C257.458 227.63 250.591 223.053 244.774 214.269C238.845 205.313 234.628 192.785 231.733 179.187C225.964 152.103 225.951 123.402 225.951 117.56L210.975 117.56Z" fill="#0B0B0B" mask="url(#path-42-inside-20_2911_710)"/>
<mask id="path-44-inside-21_2911_710" fill="white">
<path d="M261.409 0.000244665C213.84 0.000244141 213.84 105.803 213.84 117.559C213.84 129.314 213.84 235.117 261.409 235.117"/>
</mask>
<path d="M261.409 -7.4875C246.198 -7.4875 235.227 1.16061 227.665 12.5817C220.216 23.8317 215.513 38.4891 212.462 52.8113C206.338 81.5668 206.352 111.645 206.352 117.559L221.328 117.559C221.328 111.716 221.341 83.0153 227.109 55.9306C230.005 42.3327 234.222 29.8048 240.151 20.8494C245.968 12.0652 252.835 7.48799 261.409 7.48799L261.409 -7.4875ZM206.352 117.559C206.352 123.472 206.338 153.55 212.462 182.306C215.513 196.628 220.216 211.285 227.665 222.535C235.227 233.956 246.198 242.605 261.409 242.605L261.409 227.629C252.835 227.629 245.968 223.052 240.151 214.268C234.222 205.312 230.005 192.784 227.109 179.186C221.341 152.102 221.328 123.401 221.328 117.559L206.352 117.559Z" fill="#0B0B0B" mask="url(#path-44-inside-21_2911_710)"/>
<g opacity="0.89">
<path d="M40.621 152.465C41.0954 153.306 41.613 154.039 42.1737 154.664C42.7559 155.29 43.3921 155.775 44.0821 156.12C44.7722 156.465 45.5162 156.638 46.3141 156.638C47.2414 156.638 47.9961 156.4 48.5784 155.926C49.1606 155.452 49.4517 154.805 49.4517 153.985C49.4517 153.274 49.2684 152.702 48.9018 152.271C48.5568 151.839 48.0285 151.462 47.3168 151.139C46.6268 150.794 45.775 150.427 44.7614 150.039C44.2223 149.845 43.5969 149.586 42.8853 149.262C42.1952 148.917 41.5375 148.486 40.9121 147.969C40.2867 147.429 39.7692 146.783 39.3595 146.028C38.9497 145.251 38.7449 144.324 38.7449 143.246C38.7449 141.952 39.0683 140.841 39.7153 139.914C40.3838 138.965 41.2787 138.243 42.4001 137.747C43.543 137.229 44.8153 136.971 46.217 136.971C47.6619 136.971 48.9018 137.219 49.937 137.715C50.9936 138.189 51.867 138.804 52.5571 139.558C53.2687 140.292 53.8186 141.057 54.2068 141.855L50.5839 143.861C50.282 143.321 49.9154 142.836 49.4841 142.405C49.0744 141.952 48.5999 141.596 48.0608 141.337C47.5217 141.057 46.9071 140.917 46.217 140.917C45.3113 140.917 44.632 141.133 44.1792 141.564C43.7263 141.974 43.4999 142.459 43.4999 143.02C43.4999 143.58 43.6832 144.076 44.0498 144.507C44.4164 144.917 44.9771 145.316 45.7318 145.704C46.4866 146.071 47.4354 146.448 48.5784 146.836C49.3116 147.095 50.0124 147.419 50.6809 147.807C51.371 148.195 51.9856 148.669 52.5247 149.23C53.0854 149.769 53.5167 150.416 53.8186 151.171C54.1421 151.904 54.3038 152.756 54.3038 153.726C54.3038 154.826 54.0882 155.807 53.6569 156.67C53.2256 157.533 52.6325 158.266 51.8778 158.87C51.123 159.452 50.2712 159.894 49.3224 160.196C48.3951 160.519 47.4139 160.681 46.3788 160.681C44.9986 160.681 43.7048 160.422 42.4971 159.905C41.3111 159.366 40.276 158.643 39.3918 157.737C38.5077 156.832 37.8176 155.851 37.3216 154.794L40.621 152.465ZM60.6628 155.441C60.6628 155.872 60.7706 156.249 60.9863 156.573C61.2019 156.875 61.493 157.112 61.8596 157.285C62.2478 157.436 62.6683 157.511 63.1212 157.511C63.7681 157.511 64.3503 157.382 64.8679 157.123C65.3855 156.842 65.806 156.454 66.1294 155.958C66.4529 155.441 66.6146 154.826 66.6146 154.115L67.1322 156.055C67.1322 157.004 66.8626 157.802 66.3235 158.449C65.806 159.096 65.1267 159.581 64.2857 159.905C63.4662 160.228 62.6036 160.39 61.6979 160.39C60.7706 160.39 59.908 160.207 59.1101 159.84C58.3122 159.473 57.6653 158.945 57.1693 158.255C56.6949 157.543 56.4577 156.681 56.4577 155.667C56.4577 154.222 56.9644 153.079 57.978 152.238C58.9915 151.397 60.4256 150.977 62.2801 150.977C63.229 150.977 64.0592 151.074 64.7709 151.268C65.5041 151.462 66.1187 151.699 66.6146 151.98C67.1106 152.26 67.4664 152.53 67.6821 152.788V154.729C67.0998 154.298 66.4421 153.974 65.7089 153.759C64.9973 153.543 64.2425 153.435 63.4446 153.435C62.7977 153.435 62.2694 153.522 61.8596 153.694C61.4499 153.845 61.148 154.071 60.9539 154.373C60.7598 154.654 60.6628 155.009 60.6628 155.441ZM59.0454 149.392L57.4928 146.545C58.2691 146.136 59.2179 145.747 60.3393 145.381C61.4607 144.993 62.7114 144.799 64.0916 144.799C65.3639 144.799 66.496 144.982 67.488 145.348C68.48 145.715 69.2563 146.254 69.817 146.966C70.3777 147.656 70.658 148.508 70.658 149.521V160.066H66.6146V150.395C66.6146 149.985 66.5499 149.64 66.4206 149.36C66.2912 149.058 66.0863 148.81 65.806 148.616C65.5472 148.421 65.2345 148.281 64.8679 148.195C64.5013 148.109 64.0916 148.066 63.6387 148.066C62.9486 148.066 62.2909 148.141 61.6655 148.292C61.0402 148.443 60.501 148.626 60.0482 148.842C59.5953 149.058 59.2611 149.241 59.0454 149.392ZM72.6469 145.187H81.8334V148.713H72.6469V145.187ZM75.2023 140.011H79.2457V160.066H75.2023V140.011ZM84.8076 154.923C85.433 155.505 86.0152 155.98 86.5543 156.346C87.0934 156.692 87.6002 156.95 88.0746 157.123C88.5706 157.295 89.0343 157.382 89.4656 157.382C90.0262 157.382 90.4575 157.263 90.7594 157.026C91.0613 156.767 91.2123 156.422 91.2123 155.991C91.2123 155.603 91.0829 155.279 90.8241 155.02C90.5869 154.74 90.2311 154.492 89.7567 154.276C89.2823 154.061 88.6784 153.834 87.9452 153.597C87.2552 153.338 86.5867 153.036 85.9397 152.691C85.2928 152.325 84.7537 151.85 84.3224 151.268C83.9126 150.664 83.7078 149.899 83.7078 148.971C83.7078 148.087 83.945 147.343 84.4194 146.739C84.8938 146.114 85.53 145.65 86.3279 145.348C87.1474 145.025 88.0531 144.863 89.045 144.863C89.8861 144.863 90.6732 144.971 91.4064 145.187C92.1396 145.402 92.8189 145.694 93.4442 146.06C94.0696 146.405 94.6195 146.815 95.0939 147.289L93.2502 149.877C92.711 149.295 92.0641 148.82 91.3093 148.454C90.5761 148.087 89.8537 147.904 89.1421 147.904C88.6677 147.904 88.2903 148.001 88.0099 148.195C87.7512 148.368 87.6218 148.637 87.6218 149.004C87.6218 149.327 87.7512 149.618 88.0099 149.877C88.2903 150.114 88.6784 150.33 89.1744 150.524C89.692 150.718 90.2742 150.955 90.9212 151.236C91.7191 151.538 92.4523 151.883 93.1208 152.271C93.8108 152.637 94.3607 153.101 94.7705 153.662C95.1802 154.222 95.3851 154.956 95.3851 155.861C95.3851 157.349 94.8999 158.514 93.9295 159.355C92.959 160.174 91.622 160.584 89.9184 160.584C88.8617 160.584 87.8913 160.444 87.0072 160.163C86.1446 159.883 85.3575 159.517 84.6458 159.064C83.9558 158.589 83.3304 158.082 82.7697 157.543L84.8076 154.923ZM102.128 148.583V146.481H105.783C106.452 146.481 107.034 146.373 107.53 146.157C108.026 145.942 108.403 145.629 108.662 145.219C108.942 144.809 109.083 144.324 109.083 143.763C109.083 142.901 108.781 142.243 108.177 141.79C107.595 141.337 106.797 141.111 105.783 141.111H103.292V156.379H106.268C107.045 156.379 107.746 156.271 108.371 156.055C108.996 155.818 109.481 155.452 109.827 154.956C110.193 154.46 110.376 153.823 110.376 153.047C110.376 152.486 110.269 152.012 110.053 151.624C109.859 151.214 109.568 150.88 109.18 150.621C108.813 150.341 108.382 150.147 107.886 150.039C107.39 149.909 106.851 149.845 106.268 149.845H102.128V147.322H106.689C107.789 147.322 108.835 147.44 109.827 147.677C110.84 147.915 111.746 148.292 112.544 148.81C113.342 149.306 113.967 149.953 114.42 150.75C114.894 151.548 115.131 152.508 115.131 153.629C115.131 155.117 114.776 156.336 114.064 157.285C113.374 158.233 112.393 158.934 111.12 159.387C109.848 159.84 108.371 160.066 106.689 160.066H98.6668V137.423H106.204C107.713 137.423 109.039 137.639 110.182 138.07C111.325 138.48 112.22 139.106 112.867 139.947C113.514 140.788 113.838 141.855 113.838 143.149C113.838 144.292 113.514 145.273 112.867 146.092C112.22 146.912 111.325 147.537 110.182 147.969C109.039 148.378 107.713 148.583 106.204 148.583H102.128ZM122.793 145.187V160.066H118.685V145.187H122.793ZM127.16 149.554C126.88 149.295 126.589 149.101 126.287 148.971C126.006 148.82 125.65 148.745 125.219 148.745C124.702 148.745 124.26 148.885 123.893 149.165C123.526 149.446 123.246 149.845 123.052 150.362C122.879 150.858 122.793 151.462 122.793 152.174L121.629 151.009C121.629 149.823 121.855 148.777 122.308 147.872C122.761 146.944 123.354 146.211 124.087 145.672C124.82 145.111 125.575 144.831 126.351 144.831C126.89 144.831 127.397 144.928 127.872 145.122C128.368 145.316 128.767 145.607 129.068 145.995L127.16 149.554ZM131.095 139.429C131.095 138.739 131.343 138.178 131.839 137.747C132.335 137.294 132.928 137.068 133.618 137.068C134.308 137.068 134.89 137.294 135.365 137.747C135.861 138.178 136.109 138.739 136.109 139.429C136.109 140.097 135.861 140.658 135.365 141.111C134.89 141.564 134.308 141.79 133.618 141.79C132.928 141.79 132.335 141.564 131.839 141.111C131.343 140.658 131.095 140.097 131.095 139.429ZM131.548 145.187H135.624V160.066H131.548V145.187ZM151.295 134.836H155.5V160.066H151.295V134.836ZM139.068 152.627C139.068 150.966 139.402 149.564 140.071 148.421C140.739 147.257 141.623 146.373 142.723 145.769C143.823 145.165 144.988 144.863 146.217 144.863C147.467 144.863 148.567 145.176 149.516 145.801C150.487 146.427 151.241 147.322 151.78 148.486C152.341 149.629 152.621 151.009 152.621 152.627C152.621 154.222 152.341 155.603 151.78 156.767C151.241 157.932 150.487 158.826 149.516 159.452C148.567 160.077 147.467 160.39 146.217 160.39C144.988 160.39 143.823 160.088 142.723 159.484C141.623 158.88 140.739 157.996 140.071 156.832C139.402 155.667 139.068 154.266 139.068 152.627ZM143.403 152.627C143.403 153.511 143.586 154.276 143.952 154.923C144.319 155.57 144.815 156.066 145.44 156.411C146.066 156.756 146.734 156.929 147.446 156.929C148.071 156.929 148.675 156.767 149.257 156.444C149.861 156.099 150.346 155.603 150.713 154.956C151.101 154.309 151.295 153.532 151.295 152.627C151.295 151.721 151.101 150.945 150.713 150.298C150.346 149.651 149.861 149.165 149.257 148.842C148.675 148.497 148.071 148.324 147.446 148.324C146.734 148.324 146.066 148.497 145.44 148.842C144.815 149.187 144.319 149.683 143.952 150.33C143.586 150.977 143.403 151.742 143.403 152.627ZM158.818 161.102H162.926C162.948 161.748 163.12 162.298 163.444 162.751C163.767 163.226 164.209 163.592 164.77 163.851C165.33 164.11 165.988 164.239 166.743 164.239C167.433 164.239 168.08 164.077 168.684 163.754C169.309 163.431 169.805 162.935 170.172 162.266C170.56 161.598 170.754 160.756 170.754 159.743V145.187H174.797V159.743C174.797 161.576 174.431 163.085 173.698 164.272C172.986 165.458 172.026 166.32 170.819 166.859C169.611 167.42 168.296 167.7 166.872 167.7C165.147 167.7 163.702 167.42 162.538 166.859C161.373 166.32 160.478 165.544 159.853 164.53C159.249 163.538 158.904 162.395 158.818 161.102ZM158.527 152.497C158.527 150.837 158.861 149.446 159.53 148.324C160.198 147.181 161.082 146.319 162.182 145.737C163.282 145.154 164.446 144.863 165.675 144.863C166.926 144.863 168.026 145.165 168.975 145.769C169.945 146.373 170.7 147.246 171.239 148.389C171.8 149.51 172.08 150.88 172.08 152.497C172.08 154.093 171.8 155.462 171.239 156.605C170.7 157.748 169.945 158.622 168.975 159.225C168.026 159.808 166.926 160.099 165.675 160.099C164.446 160.099 163.282 159.808 162.182 159.225C161.082 158.643 160.198 157.791 159.53 156.67C158.861 155.527 158.527 154.136 158.527 152.497ZM162.861 152.497C162.861 153.381 163.045 154.136 163.411 154.761C163.778 155.365 164.274 155.829 164.899 156.152C165.525 156.476 166.193 156.638 166.905 156.638C167.53 156.638 168.134 156.487 168.716 156.185C169.32 155.861 169.805 155.398 170.172 154.794C170.56 154.168 170.754 153.403 170.754 152.497C170.754 151.807 170.646 151.203 170.43 150.686C170.215 150.168 169.913 149.737 169.525 149.392C169.158 149.047 168.748 148.788 168.296 148.616C167.843 148.421 167.379 148.324 166.905 148.324C166.193 148.324 165.525 148.486 164.899 148.81C164.274 149.133 163.778 149.608 163.411 150.233C163.045 150.837 162.861 151.591 162.861 152.497ZM185.881 160.39C184.264 160.39 182.851 160.066 181.644 159.419C180.436 158.773 179.498 157.878 178.83 156.735C178.183 155.57 177.859 154.201 177.859 152.627C177.859 151.031 178.183 149.661 178.83 148.519C179.498 147.354 180.436 146.459 181.644 145.834C182.851 145.187 184.275 144.863 185.914 144.863C187.553 144.863 188.943 145.165 190.086 145.769C191.251 146.351 192.135 147.214 192.739 148.357C193.343 149.478 193.645 150.837 193.645 152.433C193.645 152.627 193.634 152.831 193.612 153.047C193.612 153.263 193.601 153.435 193.58 153.565H180.253V150.977H189.925L188.793 152.465C188.879 152.335 188.954 152.163 189.019 151.947C189.105 151.71 189.148 151.516 189.148 151.365C189.148 150.632 189.008 150.006 188.728 149.489C188.469 148.971 188.092 148.562 187.596 148.26C187.1 147.958 186.517 147.807 185.849 147.807C185.029 147.807 184.339 147.99 183.779 148.357C183.24 148.702 182.819 149.23 182.517 149.942C182.237 150.632 182.086 151.494 182.064 152.53C182.064 153.522 182.204 154.363 182.485 155.053C182.787 155.743 183.229 156.271 183.811 156.638C184.393 157.004 185.094 157.188 185.914 157.188C186.841 157.188 187.628 157.015 188.275 156.67C188.943 156.303 189.493 155.764 189.925 155.053L193.58 156.185C192.804 157.586 191.768 158.643 190.475 159.355C189.202 160.045 187.671 160.39 185.881 160.39Z" fill="#0B0B0B"/>
<path d="M160.295 111.041C161.322 111.041 162.301 111.234 163.25 111.511V108.676C149.341 99.6301 133.199 94.4407 115.972 94.4407C98.7447 94.4407 82.6025 99.6301 68.6934 108.677V111.511C69.6432 111.235 70.6214 111.042 71.6484 111.042C77.1498 111.042 81.732 115.284 83.0497 121.002H89.7958C91.1135 115.284 95.6961 111.042 101.197 111.042C106.698 111.042 111.281 115.284 112.598 121.002H119.344C120.662 115.284 125.245 111.042 130.746 111.042C136.247 111.042 140.829 115.284 142.147 121.002H148.893C150.212 115.284 154.794 111.041 160.295 111.041Z" fill="black"/>
<path d="M106.696 82.0142C106.696 82.0142 124.612 77.9135 139.611 92.264C139.611 92.264 137.779 86.1149 133.073 81.9445C133.073 81.9445 145.72 82.8275 163.25 104.838C163.25 104.838 143.565 61.2393 104.152 61.2393C104.152 61.2393 117.146 63.1068 121.561 73.4104C121.561 73.4104 99.1476 68.0348 80.5127 80.3055C80.5127 80.3055 92.5119 78.0998 97.6548 82.2005C97.6548 82.2005 80.1519 86.4626 68.6934 104.838C82.6969 96.0983 98.8174 91.1206 115.971 91.1206C115.971 91.1206 113.481 84.21 106.696 82.0142Z" fill="black"/>
</g>
</svg>
